<?xml version="1.0" encoding="utf-8"?>
<svg version="1.1" id="Layer_1" xmlns="http://www.w3.org/2000/svg" xmlns:xlink="http://www.w3.org/1999/xlink" x="0px" y="0px"
	 viewBox="0 0 35 30" style="enable-background:new 0 0 35 30;" xml:space="preserve">
<style type="text/css">
	.st0{fill:rgba(24, 20, 21, 0.1);}
</style>
<path class="st0" d="M0,0v30h35V0H0z M10,26H4v-6h6V26z M10,18H4v-6h6V18z M10,10H4V4h6V10z M17,26h-6v-6h6V26z M17,18h-6v-6h6V18z
	 M17,10h-6V4h6V10z M24,26h-6v-6h6V26z M24,18h-6v-6h6V18z M24,10h-6V4h6V10z M31,26h-6v-6h6V26z M31,18h-6v-6h6V18z M31,10h-6V4h6
	V10z"/>
</svg>