<?xml version="1.0" encoding="utf-8"?>
<svg version="1.1" id="Layer_1" xmlns="http://www.w3.org/2000/svg" xmlns:xlink="http://www.w3.org/1999/xlink" x="0px" y="0px"
	 viewBox="-295 384 20 20" style="enable-background:new -295 384 20 20;" xml:space="preserve">
<style type="text/css">
	.st0{fill:rgba(24, 20, 21, 0.1);}
</style>
<g>
	<polygon class="st0" points="-281,384 -281,386 -278.4,386 -283.7,391.3 -282.3,392.7 -277,387.4 -277,390 -275,390 -275,384 	"/>
	<polygon class="st0" points="-286.3,396.7 -287.7,395.3 -293,400.6 -293,398 -295,398 -295,404 -289,404 -289,402 -291.6,402 	"/>
	<polygon class="st0" points="-293,386 -283,386 -283,384 -295,384 -295,396 -293,396 	"/>
	<polygon class="st0" points="-277,402 -287,402 -287,404 -275,404 -275,392 -277,392 	"/>
</g>
</svg>