<?xml version="1.0" encoding="utf-8"?>
<svg version="1.1" id="Layer_1" xmlns="http://www.w3.org/2000/svg" xmlns:xlink="http://www.w3.org/1999/xlink" x="0px" y="0px"
	 viewBox="-232.5 339 55.1 82.5" style="enable-background:new -232.5 339 55.1 82.5;" xml:space="preserve">
<style type="text/css">
	.st0{fill:rgba(24, 20, 21, 0.1);}
</style>
<g>
	<path class="st0" d="M-178.7,388.1c-3.9-21.7-33.8-49.1-33.8-49.1c6.9,14.7-7.6,32.4-7.6,32.4c-5.7,5.5-9,10.2-10.5,14.4
		c-1.2,2.9-1.9,6-2,9.3c-0.2,8.9,4.2,16.9,11.2,21.9c-0.5-1.4-0.8-2.9-0.7-4.5c0-1.6,0.4-3.1,1-4.5c0.7-2,2.3-4.3,5.1-7
		c0,0,7-8.6,3.7-15.7c0,0,14.5,13.3,16.4,23.8c0.4,1.3,0.6,2.6,0.6,4c-0.1,3.2-1.4,6.1-3.5,8.4c12-2.6,21.1-12.8,21.3-25.1
		C-177.4,393.5-177.8,390.7-178.7,388.1z M-217.6,371.1c0.1,0.1,0.2,0.2,0.2,0.3C-217.4,371.2-217.5,371.1-217.6,371.1L-217.6,371.1
		z M-217.1,371.7c0.1-0.1,0.2-0.2,0.3-0.3c0,0,0,0,0,0C-216.9,371.5-217,371.6-217.1,371.7z"/>
</g>
</svg>
