<?xml version="1.0" encoding="utf-8"?>
<!-- Generator: Adobe Illustrator 19.0.0, SVG Export Plug-In . SVG Version: 6.00 Build 0)  -->
<svg version="1.1" id="Layer_1" xmlns="http://www.w3.org/2000/svg" xmlns:xlink="http://www.w3.org/1999/xlink" x="0px" y="0px"
	 viewBox="0 0 151.1 155.7" style="enable-background:new 0 0 151.1 155.7;" xml:space="preserve">
<style type="text/css">
	.st0{fill:rgba(24, 20, 21, 0.1);}
</style>
<path id="XMLID_30_" class="st0" d="M152.6,33V-1.5H-1.5v158.7l154.1,0V75.8h-22.3V33H152.6z M117.9,144.8H31.5v-11.2h86.3V144.8z
	 M117.9,121.2H31.5v-11.2h86.3V121.2z M19.1,20.6l0,4.9l0,51.8l0,10.9h121.1v56.5h-9.9V97.5H19.1v47.3h-8.2V10.9h129.2v9.7H19.1z
	 M117.9,33v42.8H97.6V33H117.9z M85.2,33v42.8H64.6V33H85.2z M52.2,33v42.8H31.5V33H52.2z"/>
</svg>
