<?xml version="1.0" encoding="utf-8"?>
<!-- Generator: Adobe Illustrator 19.0.0, SVG Export Plug-In . SVG Version: 6.00 Build 0)  -->
<svg version="1.1" id="Layer_1" xmlns="http://www.w3.org/2000/svg" xmlns:xlink="http://www.w3.org/1999/xlink" x="0px" y="0px"
	 width="100px" height="59.7px" viewBox="-424.5 250.9 100 59.7" style="enable-background:new -424.5 250.9 100 59.7;"
	 xml:space="preserve">
<style type="text/css">
	.st0{fill:#F4BA9F;}
</style>
<g id="XMLID_44_">
	<path id="XMLID_45_" class="st0" d="M-411.1,251.1h-1.9v-0.3h9.2v3.7h-0.2l-1-3.4h-4.1v5.7h2.3c2.4,0,4,1.2,4,4
		c0,2.4-1.6,3.9-5,3.9h-5.1v-0.2h1.9C-411.1,264.6-411.1,251.1-411.1,251.1z M-409.2,264.5h1.3c1.9-0.1,3.1-0.9,3.1-3.6
		c0-2.2-0.9-3.8-2.8-3.8h-1.6L-409.2,264.5L-409.2,264.5z"/>
	<path id="XMLID_48_" class="st0" d="M-397.3,265c-2.6,0-4.1-1.6-4.1-5.4c0-3,1.9-5.7,4.3-5.7c2.8,0,4.1,1.8,4.1,5.5
		C-393,262.3-394.9,265-397.3,265z M-397.2,254c-2.1,0-2.4,2.5-2.4,5.1c0,2.5,0.3,5.5,2.5,5.5c2.1,0,2.3-2.6,2.3-5.1
		C-394.8,257.5-394.8,254-397.2,254z"/>
	<path id="XMLID_51_" class="st0" d="M-386.1,254.3h-2.1c-0.1,2.9-0.6,6.1-1.1,8.1c-0.5,1.6-0.8,2.6-2.6,2.6v-1.8l0.1-0.1h2.1
		c0.6-2.3,1.1-5.7,1.2-8.4l-1.7-0.5V254h7.5v0.1l-1.6,0.1v10.2l1.6,0.1v0.2h-4.9v-0.2l1.5-0.1L-386.1,254.3L-386.1,254.3z"/>
	<path id="XMLID_53_" class="st0" d="M-378,258.5h1c2.4,0,4,0.7,4,3.1c0,1.8-1.2,3.1-4,3.1h-4.3v-0.2l1.6-0.1v-10.1l-1.6-0.1V254
		h4.9v0.1l-1.5,0.1V258.5z M-378,264.5h0.9c1.4,0,2.3-0.8,2.3-2.9c0-2-0.8-2.9-2.3-2.9h-0.9V264.5z"/>
	<path id="XMLID_56_" class="st0" d="M-358.4,264.5l1.5,0.1v0.2h-15.1v-0.2l1.6-0.1v-10.2l-1.6-0.1V254h4.5v0.1l-1.1,0.1v10.2h3.4
		v-10.1l-1.1-0.1V254h4v0.1l-1.2,0.2v10.2h3.4v-10.2l-1.1-0.1V254h4.4v0.1l-1.5,0.1V264.5z"/>
	<path id="XMLID_58_" class="st0" d="M-354.6,257.6v-3c0.8-0.4,1.8-0.9,3.1-0.9c1.6,0,3.2,1,3.2,3.3v7.3l1.2,0.1v0.2h-2.7l-0.3-1.3
		c-0.6,0.7-1.5,1.5-2.9,1.5c-1.4,0-2.5-1-2.5-2.8s1.6-3.2,4.3-3.2h1v-2.2c0-2.4-0.7-2.8-1.6-2.8c-0.5,0-1.1,0.1-1.7,0.5l-1,3.1
		L-354.6,257.6L-354.6,257.6z M-349.9,259.2h-1.3c-1.6,0-2.4,0.8-2.4,2.6c0,1.4,0.8,2.1,1.8,2.1c0.6,0,1.2-0.2,1.9-0.6V259.2z"/>
	<path id="XMLID_61_" class="st0" d="M-339.4,260.1h-1.1l-2.5,4.7h-3v-0.2l1.3-0.3l2.5-4.5c-1.5-0.5-2.3-1.4-2.3-2.8
		c0-2.2,1.6-3.1,3.6-3.1h4.6v0.1l-1.5,0.2v10.2l1.6,0.1v0.2h-4.7v-0.2l1.3-0.1L-339.4,260.1L-339.4,260.1z M-339.4,259.8v-5.5h-0.9
		c-1.6,0-2.3,1-2.3,2.8c0,2.2,1,2.8,2.4,2.9L-339.4,259.8L-339.4,259.8z"/>
</g>
<g id="XMLID_19_">
	<path id="XMLID_20_" class="st0" d="M-423.3,287.7l-1,3.7h-0.3v-3.9h1.7c1.2-3.5,2.1-9,2.6-13l-2.4-0.6v-0.2h9.2v0.2h-2.1v13.4h2.3
		v3.9h-0.2l-1.1-3.7L-423.3,287.7L-423.3,287.7z M-417.4,287.4V274h-2.6c-0.4,4.8-1.5,10.8-2.6,13.4L-417.4,287.4L-417.4,287.4z"/>
	<path id="XMLID_23_" class="st0" d="M-409.5,277.2l-1.8-0.1v-0.2h3.2l2.8,8.6h0.1l2.6-8.6h3.1v0.1l-1.6,0.2l0.9,10.2l1.5,0.1v0.2
		h-4.9v-0.2l1.8-0.1l-0.9-9.2h-0.1l-3,9.6h-0.5l-3.1-9.6h-0.1l-0.8,8.9l1.6,0.5v0.2h-3.4v-0.2l1.6-0.5L-409.5,277.2z"/>
	<path id="XMLID_25_" class="st0" d="M-394.1,285.4l4.6-6.6v-1.6l-1.4-0.1v-0.2h4.7v0.1l-1.6,0.1v10.2l1.6,0.1v0.2h-4.7v-0.2
		l1.4-0.1v-8.2l-4.6,6.6v1.6l1.4,0.1v0.2h-4.7v-0.2l1.6-0.1v-10.1l-1.6-0.1v-0.2h4.7v0.1l-1.4,0.1
		C-394.1,277.1-394.1,285.4-394.1,285.4z"/>
	<path id="XMLID_27_" class="st0" d="M-381.5,277.2h-2.1l-1,3.3h-0.2v-3.6h8.3v3.6h-0.2l-1-3.3h-2.1v10.2l1.6,0.1v0.2h-4.9v-0.2
		l1.6-0.1v-10.2H-381.5z"/>
	<path id="XMLID_29_" class="st0" d="M-375.1,292.4l1.5-0.1v-14.6h-1.6v-0.2l2.9-0.9h0.3l0.1,1.2c0.9-0.8,1.7-1.2,2.7-1.2
		c2.4,0,3.5,2.3,3.5,5.3c0,3.4-2.2,5.8-4.8,5.8c-0.5,0-1,0-1.4-0.2v4.6l1.8,0.1v0.2L-375.1,292.4L-375.1,292.4L-375.1,292.4z
		 M-367.4,282.4c0-2.6-0.5-4.9-2.9-4.9c-0.5,0-1,0.2-1.5,0.4v8.9c0.5,0.4,1.2,0.7,1.9,0.7C-368.2,287.6-367.4,284.8-367.4,282.4z"/>
	<path id="XMLID_32_" class="st0" d="M-359.8,287.8c-2.6,0-4.1-1.6-4.1-5.4c0-3,1.9-5.7,4.3-5.7c2.8,0,4.1,1.8,4.1,5.5
		C-355.4,285.2-357.3,287.8-359.8,287.8z M-359.6,276.9c-2.1,0-2.4,2.5-2.4,5.1c0,2.5,0.3,5.5,2.5,5.5c2.1,0,2.3-2.6,2.3-5.1
		C-357.3,280.4-357.3,276.9-359.6,276.9z"/>
	<path id="XMLID_35_" class="st0" d="M-352.6,277.2l-1.6-0.1v-0.2h4.5c2.4,0,3.7,1,3.7,2.7c0,1.1-0.7,2.1-1.8,2.5l0,0
		c0.8,0.1,2.3,0.6,2.3,2.6c0,1.8-1.3,3.1-4,3.1h-4.7v-0.2l1.6-0.1V277.2z M-351,282h1c1.6,0,2.1-0.9,2.1-2.5c0-2.2-1.3-2.4-2.5-2.4
		h-0.6V282z M-351,282.2v5.1h1c1.4,0,2.5-0.6,2.5-2.7c0-2-1-2.5-2.8-2.5C-350.2,282.2-351,282.2-351,282.2z"/>
	<path id="XMLID_39_" class="st0" d="M-340.7,281.9h1.9l1-3.1c0.6-1.8,0.9-2.3,2.1-2.3c0.3,0,0.6,0.1,0.9,0.1l-0.3,1.9h-0.1l-1.8-1
		l-1.2,3.4l2.9,6.1l1.3,0.3v0.2h-3.1l-2.5-5.4h-1.1v5.1l1.3,0.1v0.2h-4.7v-0.2l1.6-0.1v-10.1l-1.6-0.1v-0.2h4.9v0.1l-1.5,0.2V281.9z
		"/>
	<path id="XMLID_41_" class="st0" d="M-332.1,280.5v-3c0.8-0.4,1.8-0.9,3.1-0.9c1.6,0,3.2,1,3.2,3.3v7.3l1.2,0.1v0.2h-2.7l-0.3-1.3
		c-0.6,0.7-1.5,1.5-2.9,1.5c-1.4,0-2.5-1-2.5-2.8s1.6-3.2,4.3-3.2h1v-2.1c0-2.4-0.7-2.8-1.6-2.8c-0.5,0-1.1,0.1-1.7,0.5l-1,3.1
		C-331.9,280.5-332.1,280.5-332.1,280.5z M-327.4,282h-1.3c-1.6,0-2.4,0.8-2.4,2.6c0,1.4,0.8,2.1,1.8,2.1c0.6,0,1.2-0.2,1.9-0.6V282
		z"/>
</g>
<g id="XMLID_14_">
	<path id="XMLID_15_" class="st0" d="M-383.7,310.3l1.9-0.2v-13.3l-1.9-0.1v-0.1h5.8v0.1l-2,0.1v13.3l2,0.1v0.2L-383.7,310.3
		L-383.7,310.3z"/>
	<path id="XMLID_17_" class="st0" d="M-365.4,296.7l-1.5,0.7l-3.1,5.2l4.1,7.6l1,0.1v0.2h-5v-0.2l1.8-0.1l-3.1-5.9l-3.3,5.4l1.8,0.6
		v0.2h-3.9v-0.2l1.7-0.6l3.5-5.6l-3.9-7.2l-1.2-0.1v-0.2h5v0.1l-1.8,0.1l3,5.5l3.1-5l-1.6-0.7v-0.1L-365.4,296.7L-365.4,296.7z"/>
</g>
</svg>
