<?xml version="1.0" standalone="no"?>
<!DOCTYPE svg PUBLIC "-//W3C//DTD SVG 1.1//EN" "http://www.w3.org/Graphics/SVG/1.1/DTD/svg11.dtd" >
<svg xmlns="http://www.w3.org/2000/svg">
<metadata>Generated by IcoMoon</metadata>
<defs>
<font id="icomoon" horiz-adv-x="1024">
<font-face units-per-em="1024" ascent="960" descent="-64" />
<missing-glyph horiz-adv-x="1024" />
<glyph unicode="&#x20;" horiz-adv-x="512" d="" />
<glyph unicode="&#xe900;" glyph-name="id" horiz-adv-x="738" d="M85.93 200.951h-93.091v150.378h121.734l42.965 200.503h-164.699v150.378h193.343l50.126 264.951h150.378l-50.126-264.951h150.378l50.126 264.951h157.538l-57.287-264.951h93.091v-150.378h-121.734l-42.965-200.503h164.699v-150.378h-193.343l-50.126-264.951h-150.378l50.126 264.951h-150.378l-50.126-264.951h-150.378l50.126 264.951zM307.916 544.671l-42.965-200.503h150.378l35.804 200.503h-143.217z" />
<glyph unicode="&#xe901;" glyph-name="marker" horiz-adv-x="681" d="M340.619 960c-188.519 0-340.619-152.1-340.619-340.619 0-302.059 312.77-661.958 325.623-676.954 4.285-4.285 8.569-6.427 14.996-6.427s10.711 2.142 14.996 6.427c12.854 14.996 325.623 381.322 325.623 676.954 0 188.519-152.1 340.619-340.619 340.619zM340.619 450.142c-81.406 0-147.816 66.41-147.816 147.816s66.41 147.816 147.816 147.816c81.406 0 147.816-66.41 147.816-147.816s-66.41-147.816-147.816-147.816z" />
<glyph unicode="&#xe902;" glyph-name="baza" horiz-adv-x="847" d="M423.4 960c225.6 0 416.4-93.2 422.8-204.6-6.4-111.4-197.2-204.6-422.8-204.6s-416.4 93.2-422.8 204.6c6.4 111.6 197.2 204.6 422.8 204.6zM846.8 146.4c0-114-193.8-210.4-423.4-210.4s-423.4 96.4-423.4 210.4v100.6c72.4-87 232.8-146.2 423.4-146.2s351 59.2 423.4 146.2v-100.6zM846.8 352.8c0-114-193.8-210.4-423.4-210.4s-423.4 96.4-423.4 210.4v104.8c72.4-87 232.8-146.2 423.4-146.2s351 59.2 423.4 146.2v-104.8zM846.8 563.4c0-114-193.8-210.4-423.4-210.4s-423.4 96.4-423.4 210.4v92c72.4-87 232.8-146.2 423.4-146.2s351 59.2 423.4 146.2v-92z" />
<glyph unicode="&#xe903;" glyph-name="baza-active" horiz-adv-x="847" d="M423.4 960c225.6 0 416.4-93.2 422.8-204.6-6.4-111.4-197.2-204.6-422.8-204.6s-416.4 93.2-422.8 204.6c6.4 111.6 197.2 204.6 422.8 204.6zM846.8 146.4c0-114-193.8-210.4-423.4-210.4s-423.4 96.4-423.4 210.4v100.6c72.4-87 232.8-146.2 423.4-146.2s351 59.2 423.4 146.2v-100.6zM846.8 352.8c0-114-193.8-210.4-423.4-210.4s-423.4 96.4-423.4 210.4v104.8c72.4-87 232.8-146.2 423.4-146.2s351 59.2 423.4 146.2v-104.8zM846.8 563.4c0-114-193.8-210.4-423.4-210.4s-423.4 96.4-423.4 210.4v92c72.4-87 232.8-146.2 423.4-146.2s351 59.2 423.4 146.2v-92z" />
<glyph unicode="&#xe904;" glyph-name="note" horiz-adv-x="808" d="M728.459 960h-649.829c-43.382 0-79.534-35.248-79.534-79.534v-865.836c0-43.382 35.248-79.534 79.534-79.534h649.829c43.382 0 79.534 35.248 79.534 79.534v865.836c0 43.382-35.248 79.534-79.534 79.534zM146.415 210.754v79.534h334.404v-79.534h-334.404zM661.578 424.953h-515.163v79.534h515.163v-79.534zM661.578 638.249h-515.163v79.534h515.163v-79.534z" />
<glyph unicode="&#xe905;" glyph-name="settings" d="M917.333 529.067c-17.067 4.267-34.133 17.067-42.667 34.133l-25.6 64c-8.533 17.067-4.267 38.4 4.267 55.467l42.667 55.467c8.533 12.8 8.533 38.4 0 51.2l-46.933 46.933c-12.8 12.8-34.133 12.8-51.2 0l-55.467-42.667c-12.8-8.533-38.4-12.8-55.467-4.267l-64 25.6c-17.067 4.267-34.133 25.6-34.133 42.667l-8.533 68.267c-4.267 17.067-17.067 34.133-38.4 34.133 0 0-12.8 0-34.133 0s-34.133 0-34.133 0c-17.067 0-34.133-17.067-38.4-34.133l-8.533-68.267c-4.267-17.067-17.067-34.133-34.133-42.667l-64-25.6c-17.067-8.533-38.4-4.267-55.467 4.267l-55.467 42.667c-12.8 8.533-38.4 8.533-51.2 0l-46.933-46.933c-12.8-12.8-12.8-34.133 0-51.2l42.667-55.467c8.533-12.8 12.8-38.4 4.267-55.467l-25.6-64c-4.267-17.067-25.6-34.133-42.667-34.133l-68.267-8.533c-17.067-4.267-34.133-17.067-34.133-38.4 0 0 0-12.8 0-34.133s0-34.133 0-34.133c0-17.067 17.067-34.133 34.133-38.4l68.267-8.533c17.067-4.267 34.133-17.067 42.667-34.133l25.6-64c8.533-17.067 4.267-38.4-4.267-55.467l-42.667-55.467c-8.533-12.8-12.8-34.133-4.267-42.667s29.867-34.133 29.867-34.133 8.533-8.533 17.067-12.8c8.533-8.533 42.667-17.067 59.733-8.533l55.467 42.667c12.8 8.533 38.4 12.8 55.467 4.267l64-25.6c17.067-4.267 34.133-25.6 34.133-42.667l8.533-68.267c4.267-17.067 17.067-34.133 38.4-34.133 0 0 12.8 0 34.133 0s34.133 0 34.133 0c17.067 0 34.133 17.067 38.4 34.133l8.533 68.267c4.267 17.067 17.067 34.133 34.133 42.667l64 25.6c17.067 8.533 38.4 4.267 55.467-4.267l55.467-42.667c12.8-8.533 38.4-8.533 51.2 0l46.933 46.933c12.8 12.8 12.8 34.133 0 51.2l-42.667 55.467c-8.533 12.8-12.8 38.4-4.267 55.467l25.6 64c4.267 17.067 25.6 34.133 42.667 34.133l68.267 8.533c17.067 4.267 34.133 17.067 34.133 38.4 0 0 0 12.8 0 34.133s0 34.133 0 34.133c0 17.067-17.067 34.133-34.133 38.4l-72.533 8.533zM512 320c-72.533 0-128 55.467-128 128s55.467 128 128 128c72.533 0 128-55.467 128-128 0-68.267-55.467-128-128-128z" />
<glyph unicode="&#xe906;" glyph-name="zhka" horiz-adv-x="857" d="M0 960h856.181l1.005-1024h-320.565v276.349h-217.060v-275.344h-319.56v1022.995zM526.571 440.463h160.785v199.976h-160.785v-199.976zM168.824 440.463h161.79v99.486h-161.79v-99.486z" />
<glyph unicode="&#xe907;" horiz-adv-x="743" d="M720.546 604.514c0-192.52-348.618-629.593-348.618-629.593s-348.618 437.073-348.618 629.593 156.098 348.618 348.618 348.618 348.618-156.098 348.618-348.618z" />
<glyph unicode="&#xe908;" horiz-adv-x="743" d="M214.166 534.166c0 8.221 0 16.442 0 24.663 6.036 14.673 10.511 30.179 18.42 43.707 11.447 19.668 30.699 30.803 52.657 39.024-3.642 3.85-6.348 6.868-9.158 9.678-11.863 11.863-23.831 23.831-35.694 35.694-7.076 7.076-9.47 14.985-1.769 22.582 7.805 7.597 15.61 4.891 22.582-2.289 2.602-2.602 5.203-5.203 7.805-7.909 22.166-22.374 44.436-44.748 66.393-66.914 14.777 11.447 22.062 23.727 24.351 39.753 1.249 8.533 1.665 17.275 3.954 25.496 9.366 33.821 31.74 55.259 64.937 65.665 8.221 0 16.442 0 24.663 0 24.039-6.66 45.997-17.171 59.629-39.024 7.18-11.447 11.343-24.872 16.859-37.359 0-7.389 0-14.777 0-22.166-6.036-12.384-10.302-26.016-18.524-36.735-17.483-22.79-42.459-32.364-70.764-34.446-17.275-1.249-30.907-9.678-42.771-24.767 3.538-2.81 6.972-5.099 9.886-7.909 22.166-21.958 44.228-44.020 66.185-66.185 9.366-9.574 8.533-21.646-2.393-24.663-5.307-1.457-13.841 1.145-18.107 4.995-15.402 14.049-29.554 29.346-45.060 45.164-2.081-5.307-3.33-8.741-4.787-12.072-16.026-37.151-53.906-61.294-93.867-59.837-40.169 1.457-76.28 28.098-89.392 66.185-2.498 6.244-4.059 13.008-6.036 19.668zM241.951 546.654c0-37.567 29.45-68.475 67.85-71.076 34.133-2.289 68.059 25.080 72.117 59.005 0.624 4.787-1.353 11.551-4.579 14.985-20.085 21.021-40.793 41.626-61.815 61.815-3.226 3.018-9.47 4.891-13.945 4.371-33.509-3.954-59.629-34.758-59.629-69.099z" />
<glyph unicode="&#xe909;" horiz-adv-x="743" d="M720.546 604.514c0-192.52-348.618-629.593-348.618-629.593s-348.618 437.073-348.618 629.593 156.098 348.618 348.618 348.618 348.618-156.098 348.618-348.618z" />
<glyph unicode="&#xe90a;" horiz-adv-x="743" d="M414.699 633.548c10.511-6.452 20.397-13.112 30.907-18.524 3.434-1.769 8.533-0.52 12.904-0.624 0.104 4.683 1.665 10.094 0 14.049-8.637 20.917-24.559 36.215-41.522 50.367-6.764 5.62-14.569 10.198-22.478 13.945-3.538 1.665-10.198 1.457-12.592-0.833-2.185-2.081-1.977-8.95-0.208-12.384 5.724-10.823 12.592-21.125 17.275-28.722-20.605-21.125-41.106-42.354-61.294-63.063-9.262 5.724-18.732 12.488-29.034 17.587-4.163 2.081-12.072 2.914-14.881 0.416-13.424-11.863-25.6-25.080-38.712-38.296 35.382-18.211 61.086-44.020 79.61-79.298 11.863 12.488 22.79 24.351 34.446 35.694 5.724 5.515 6.764 11.135 3.122 17.587-6.14 10.615-12.696 20.917-18.836 31.011 20.293 20.189 41.002 40.898 61.294 61.086zM478.803 633.548c12.072 12.176 23.207 23.831 34.966 34.966 5.724 5.411 6.66 11.135 3.33 17.587-14.465 28.306-35.59 50.263-64.312 64.104-4.059 1.977-11.863 2.081-14.881-0.52-13.32-11.447-25.6-24.143-38.816-37.047 35.798-18.211 61.19-43.603 79.714-79.089zM317.711 473.808c-1.353 4.787-1.665 7.076-2.602 9.158-14.361 29.346-36.215 51.304-65.665 65.457-3.33 1.561-10.198 1.769-11.551-0.104-2.081-3.018-2.602-9.158-0.937-12.592 14.153-29.45 36.111-51.408 65.561-65.561 1.977-0.937 4.787-1.873 6.66-1.249 3.122 1.041 5.932 3.33 8.533 4.891z" />
<glyph unicode="&#xe90b;" horiz-adv-x="743" d="M414.699 633.548c-20.293-20.189-41.002-40.898-61.294-61.19 6.14-10.094 12.696-20.397 18.836-31.011 3.746-6.452 2.602-12.072-3.122-17.587-11.655-11.239-22.582-23.102-34.446-35.486-18.524 35.382-44.228 61.086-79.61 79.298 13.112 13.216 25.288 26.433 38.712 38.296 2.81 2.498 10.719 1.665 14.881-0.416 10.302-5.099 19.668-11.863 29.034-17.587 20.085 20.709 40.689 41.938 61.294 63.063-4.683 7.597-11.551 17.795-17.275 28.722-1.769 3.434-1.873 10.302 0.208 12.384 2.498 2.289 9.054 2.498 12.592 0.833 7.909-3.746 15.714-8.325 22.478-13.945 16.963-14.153 32.885-29.45 41.522-50.367 1.665-3.954 0.104-9.366 0-14.049-4.371 0.104-9.47-1.249-12.904 0.624-10.511 5.411-20.397 12.072-30.907 18.42z" />
<glyph unicode="&#xe90c;" horiz-adv-x="743" d="M478.803 633.548c-18.524 35.486-43.915 60.878-79.714 79.193 13.216 12.8 25.496 25.6 38.816 37.047 3.018 2.602 10.823 2.498 14.881 0.52 28.826-13.841 49.847-35.798 64.312-64.104 3.33-6.556 2.393-12.176-3.33-17.587-11.759-11.239-22.894-22.894-34.966-35.070z" />
<glyph unicode="&#xe90d;" horiz-adv-x="743" d="M317.711 473.808c-2.602-1.561-5.411-3.85-8.637-4.995-1.873-0.624-4.579 0.312-6.66 1.249-29.45 14.257-51.408 36.215-65.561 65.561-1.665 3.434-1.249 9.574 0.937 12.592 1.353 1.873 8.325 1.769 11.551 0.104 29.45-14.153 51.304-36.111 65.665-65.457 1.041-1.977 1.353-4.267 2.706-9.054z" />
<glyph unicode="&#xe90e;" horiz-adv-x="743" d="M720.546 604.514c0-192.52-348.618-629.593-348.618-629.593s-348.618 437.073-348.618 629.593 156.098 348.618 348.618 348.618 348.618-156.098 348.618-348.618z" />
<glyph unicode="&#xe90f;" horiz-adv-x="743" d="M386.602 514.498c-8.429 0-16.754 0-25.184 0-71.909 7.285-110.309 62.439-157.242 108.54 39.857 35.798 69.411 81.067 121.34 99.694 4.787 0 9.574 0 14.361 0 19.46-13.945 39.337-19.98 60.254-2.81 1.353 1.145 2.914 1.873 4.371 2.81 4.787 0 9.574 0 14.361 0 52.137-19.252 82.107-64.312 120.715-99.59-83.46-84.501-77.32-89.392-152.976-108.644zM423.649 622.621c-30.283 24.143-76.072 23.727-101.88-0.104 25.704-24.039 71.597-24.455 101.88 0.104z" />
<glyph unicode="&#xe910;" horiz-adv-x="743" d="M720.546 604.514c0-192.52-348.618-629.593-348.618-629.593s-348.618 437.073-348.618 629.593 156.098 348.618 348.618 348.618 348.618-156.098 348.618-348.618z" />
<glyph unicode="&#xe911;" horiz-adv-x="743" d="M502.634 643.746h-86.27v86.27h-86.27v-86.27h-86.27v-86.27h86.27v-86.27h86.27v86.27h86.27z" />
<glyph unicode="&#xe912;" horiz-adv-x="743" d="M720.546 604.514c0-192.52-348.618-629.593-348.618-629.593s-348.618 437.073-348.618 629.593 156.098 348.618 348.618 348.618 348.618-156.098 348.618-348.618z" />
<glyph unicode="&#xe913;" horiz-adv-x="743" d="M547.59 573.294c-16.234 0-24.872 7.076-31.636 12.8-5.828 4.891-9.678 8.117-18.524 8.117s-12.696-3.226-18.524-8.117c-6.868-5.724-15.402-12.8-31.74-12.8-16.234 0-24.872 7.076-31.636 12.8-5.828 4.891-9.678 8.117-18.524 8.117s-12.696-3.226-18.524-8.117c-6.868-5.724-15.402-12.8-31.74-12.8-16.234 0-24.872 7.076-31.636 12.8-5.828 4.891-9.678 8.117-18.524 8.117s-12.696-3.226-18.524-8.117c-6.868-5.724-15.402-12.8-31.74-12.8-16.234 0-24.872 7.076-31.636 12.8-5.828 4.891-9.678 8.117-18.524 8.117v20.397c16.234 0 24.872-7.076 31.636-12.8 5.828-4.891 9.678-8.117 18.524-8.117s12.696 3.226 18.524 8.117c6.868 5.724 15.402 12.8 31.636 12.8s24.872-7.076 31.636-12.8c5.828-4.891 9.678-8.117 18.524-8.117s12.696 3.226 18.524 8.117c6.868 5.724 15.402 12.8 31.636 12.8s24.872-7.076 31.74-12.8c5.828-4.891 9.678-8.117 18.524-8.117s12.696 3.226 18.524 8.117c6.868 5.724 15.402 12.8 31.74 12.8 16.234 0 24.872-7.076 31.74-12.8 5.828-4.891 9.678-8.117 18.524-8.117v-20.397zM472.455 733.034c-24.455 0-44.332-19.668-44.332-44.020s19.876-44.020 44.332-44.020 44.332 19.668 44.332 44.020-19.772 44.020-44.332 44.020zM357.463 681.314l21.854-12.28-57.756-45.476c2.498-1.769 4.683-3.538 6.764-5.307 6.036-5.099 10.094-8.429 19.252-8.429s13.216 3.33 19.252 8.429c7.18 5.932 16.026 13.424 32.989 13.424s25.808-7.389 32.989-13.424c1.873-1.561 3.538-2.914 5.203-4.163l6.14 11.343-37.255 60.15-47.246 20.709-70.036-33.093 11.239-14.361 56.611 22.478zM547.59 554.354c-8.846 0-12.696 3.226-18.524 8.117-6.868 5.724-15.402 12.8-31.74 12.8-16.234 0-24.872-7.076-31.74-12.8-5.828-4.891-9.678-8.117-18.524-8.117s-12.696 3.226-18.524 8.117c-6.868 5.724-15.402 12.8-31.74 12.8s-24.872-7.076-31.636-12.8c-5.828-4.891-9.678-8.117-18.524-8.117s-12.696 3.226-18.524 8.117c-6.868 5.724-15.402 12.8-31.636 12.8s-24.872-7.076-31.636-12.8c-5.828-4.891-9.678-8.117-18.524-8.117s-12.696 3.226-18.524 8.117c-6.868 5.724-15.402 12.8-31.636 12.8v-20.397c8.846 0 12.696-3.226 18.524-8.117 6.868-5.724 15.402-12.8 31.636-12.8s24.872 7.076 31.74 12.8c5.828 4.891 9.678 8.117 18.524 8.117s12.696-3.226 18.524-8.117c6.868-5.724 15.402-12.8 31.636-12.8s24.872 7.076 31.74 12.8c5.828 4.891 9.678 8.117 18.524 8.117s12.696-3.226 18.524-8.117c6.868-5.724 15.402-12.8 31.636-12.8s24.872 7.076 31.74 12.8c5.828 4.891 9.678 8.117 18.524 8.117s12.696-3.226 18.524-8.117c6.868-5.724 15.402-12.8 31.636-12.8v20.397z" />
<glyph unicode="&#xe914;" horiz-adv-x="743" d="M720.546 604.514c0-192.52-348.618-629.593-348.618-629.593s-348.618 437.073-348.618 629.593 156.098 348.618 348.618 348.618 348.618-156.098 348.618-348.618z" />
<glyph unicode="&#xe915;" horiz-adv-x="743" d="M298.042 749.749c-7.805 0-15.506-7.805-15.506-15.506v-77.737c0-15.506 15.506-15.506 15.506-31.115v-139.863c0-7.805 7.805-15.506 15.506-15.506h15.61c7.805 0 15.506 7.805 15.506 15.506v139.863c0 15.506 15.506 15.506 15.506 31.115v77.737c0 7.805-7.805 15.506-15.506 15.506-3.85 0-3.85-4.787-3.85-7.805v-62.127c0-3.018 0-7.805-3.85-7.805s-3.85 4.787-3.85 7.805v62.127c0 3.018 0 7.805-3.85 7.805h-15.714c-3.85 0-3.85-4.787-3.85-7.805v-62.127c0-3.018 0-7.805-3.85-7.805s-3.85 4.787-3.85 7.805v62.127c-0.104 3.018-0.104 7.805-3.954 7.805zM453.515 749.749c-15.506 0-44.54-3.642-54.426-23.311-7.805-15.506-7.805-54.426-7.805-69.932v-62.127c0-7.805 7.805-15.506 15.506-15.506v-93.242c0-7.805 7.805-15.506 15.506-15.506h15.506c7.805 0 15.506 7.805 15.506 15.506v264.117h0.208z" />
<glyph unicode="&#xe916;" horiz-adv-x="743" d="M720.546 604.514c0-192.52-348.618-629.593-348.618-629.593s-348.618 437.073-348.618 629.593 156.098 348.618 348.618 348.618 348.618-156.098 348.618-348.618z" />
<glyph unicode="&#xe917;" horiz-adv-x="743" d="M371.928 720.234l-162.341-85.437 162.341-85.437 93.971 47.558c0 0 0-43.083 0-64.624 0-34.133 34.133-34.133 34.133-34.133v17.067c0 0-17.067 0.937-17.067 17.067 0 25.6 0 74.198 0 74.198l51.304 28.306-162.341 85.437zM295.024 566.426v-34.133c0-8.533 5.515-19.876 17.067-25.6l59.837-25.6 51.304 25.6c11.551 5.724 26.433 17.171 25.6 25.6v34.133l-76.904-37.359-76.904 37.359z" />
<glyph unicode="&#xe918;" d="M1023.237 448c0-282.348-228.889-511.237-511.237-511.237s-511.237 228.889-511.237 511.237c0 282.348 228.889 511.237 511.237 511.237s511.237-228.889 511.237-511.237z" />
<glyph unicode="&#xe919;" d="M254.398 331.255c0 13.43 0 26.859 0 40.289 9.767 23.807 17.245 49.14 30.064 71.268 18.771 32.048 50.208 50.361 86.071 63.638-5.952 6.257-10.377 11.14-14.956 15.871-19.381 19.381-38.915 38.762-58.296 58.144-11.598 11.446-15.413 24.57-2.9 36.931 12.666 12.514 25.486 7.936 36.779-3.663 4.273-4.273 8.546-8.546 12.666-12.819 36.168-36.473 72.489-72.947 108.504-109.267 24.112 18.618 36.015 38.61 39.678 64.858 1.984 13.887 2.747 28.080 6.41 41.509 15.261 55.244 51.734 90.191 105.91 107.283 13.43 0 26.859 0 40.289 0 39.22-10.988 75.083-28.080 97.211-63.79 11.598-18.771 18.466-40.594 27.469-60.891 0-12.056 0-24.112 0-36.168-9.92-20.144-16.787-42.578-30.216-59.975-28.538-37.236-69.284-52.802-115.524-56.16-28.232-1.984-50.361-15.719-69.894-40.441 5.646-4.578 11.446-8.241 16.176-12.972 36.168-35.863 72.336-71.726 108.046-108.046 15.413-15.566 13.887-35.252-3.968-40.289-8.546-2.442-22.586 1.831-29.606 8.088-25.18 22.891-48.224 47.919-73.557 73.71-3.51-8.699-5.494-14.193-7.783-19.686-26.096-60.585-87.902-99.958-153.218-97.669-65.621 2.289-124.528 45.782-145.893 108.046-3.51 10.377-6.257 21.365-9.462 32.2zM299.722 351.552c0-61.348 47.919-111.709 110.793-115.982 55.702-3.815 111.099 40.899 117.661 96.296 0.916 7.936-2.137 18.923-7.478 24.57-32.811 34.337-66.537 67.911-100.874 100.874-5.189 5.036-15.413 8.088-22.739 7.173-54.634-6.562-97.364-56.77-97.364-112.93z" />
<glyph unicode="&#xe91a;" d="M1023.237 448c0-282.348-228.889-511.237-511.237-511.237s-511.237 228.889-511.237 511.237c0 282.348 228.889 511.237 511.237 511.237s511.237-228.889 511.237-511.237z" />
<glyph unicode="&#xe91b;" d="M566.634 482.337c15.413-9.462 29.911-19.229 45.325-27.164 5.036-2.594 12.514-0.763 18.923-0.916 0.153 6.867 2.442 14.803 0 20.602-12.666 30.674-36.015 53.108-60.891 73.862-9.92 8.241-21.365 14.956-32.963 20.449-5.189 2.442-14.956 2.137-18.466-1.221-3.205-3.052-2.9-13.124-0.305-18.16 8.393-15.871 18.466-30.979 25.333-42.12-30.216-30.979-60.28-62.111-89.886-92.48-13.582 8.393-27.469 18.313-42.578 25.791-6.104 3.052-17.703 4.273-21.823 0.61-19.686-17.397-37.542-36.779-56.77-56.16 51.887-26.706 89.581-64.553 116.745-116.287 17.397 18.008 33.421 35.558 50.513 52.039 8.393 8.088 9.92 16.329 4.578 25.791-9.004 15.566-18.618 30.674-27.622 45.477 29.759 29.759 60.128 60.128 89.886 89.886zM660.64 482.184c17.703 17.855 34.032 34.947 51.276 51.276 8.393 7.936 9.767 16.329 4.883 25.791-21.213 41.509-52.192 73.71-94.312 94.007-5.952 2.9-17.397 3.052-21.823-0.763-19.534-16.787-37.542-35.405-56.923-54.328 52.497-26.554 89.734-63.79 116.898-115.982zM424.25 247.931c-1.984 7.020-2.442 10.377-3.815 13.43-21.060 43.035-53.108 75.236-96.296 95.99-4.883 2.289-14.956 2.594-16.939-0.153-3.052-4.426-3.815-13.43-1.373-18.466 20.755-43.188 52.955-75.388 96.143-96.143 2.9-1.373 7.020-2.747 9.767-1.831 4.731 1.526 8.699 4.883 12.514 7.173z" />
<glyph unicode="&#xe91c;" d="M566.634 482.337c-29.759-29.759-60.128-59.975-89.886-89.734 9.004-14.956 18.618-30.064 27.622-45.477 5.494-9.462 3.815-17.703-4.578-25.791-17.092-16.482-33.116-34.032-50.513-52.039-27.164 51.887-64.858 89.581-116.745 116.287 19.229 19.381 37.084 38.762 56.77 56.16 4.12 3.663 15.719 2.442 21.823-0.61 15.108-7.478 28.843-17.397 42.578-25.791 29.453 30.369 59.67 61.501 89.886 92.48-6.867 11.14-16.939 26.096-25.333 42.12-2.594 5.036-2.747 15.108 0.305 18.16 3.663 3.357 13.277 3.663 18.466 1.221 11.598-5.494 23.044-12.209 32.963-20.449 24.875-20.755 48.224-43.188 60.891-73.862 2.442-5.799 0.153-13.735 0-20.602-6.41 0.153-13.887-1.831-18.923 0.916-15.413 7.783-29.911 17.55-45.325 27.012z" />
<glyph unicode="&#xe91d;" d="M660.64 482.184c-27.164 52.039-64.401 89.276-116.898 116.135 19.381 18.771 37.389 37.542 56.923 54.328 4.426 3.815 15.871 3.663 21.823 0.763 42.272-20.297 73.099-52.497 94.312-94.007 4.883-9.614 3.51-17.855-4.883-25.791-17.245-16.329-33.574-33.574-51.276-51.429z" />
<glyph unicode="&#xe91e;" d="M424.25 247.931c-3.815-2.289-7.936-5.646-12.666-7.325-2.747-0.916-6.715 0.458-9.767 1.831-43.188 20.907-75.388 53.108-96.143 96.143-2.442 5.036-1.831 14.040 1.373 18.466 1.984 2.747 12.209 2.594 16.939 0.153 43.188-20.755 75.236-52.955 96.296-95.99 1.679-2.747 2.137-6.257 3.968-13.277z" />
<glyph unicode="&#xe91f;" d="M1023.237 448c0-282.348-228.889-511.237-511.237-511.237s-511.237 228.889-511.237 511.237c0 282.348 228.889 511.237 511.237 511.237s511.237-228.889 511.237-511.237z" />
<glyph unicode="&#xe920;" d="M533.518 295.239c-12.361 0-24.57 0-36.931 0-105.452 10.683-161.765 91.565-230.591 159.17 58.449 52.497 101.79 118.882 177.941 146.199 7.020 0 14.040 0 21.060 0 28.538-20.449 57.686-29.301 88.36-4.12 1.984 1.679 4.273 2.747 6.41 4.12 7.020 0 14.040 0 21.060 0 76.457-28.232 120.408-94.312 177.025-146.046-122.392-123.918-113.388-131.090-224.334-159.323zM587.846 453.799c-44.409 35.405-111.556 34.795-149.403-0.153 37.694-35.252 104.994-35.863 149.403 0.153z" />
<glyph unicode="&#xe921;" d="M1023.237 448c0-282.348-228.889-511.237-511.237-511.237s-511.237 228.889-511.237 511.237c0 282.348 228.889 511.237 511.237 511.237s511.237-228.889 511.237-511.237z" />
<glyph unicode="&#xe922;" d="M701.844 511.332h-126.512v126.512h-126.512v-126.512h-126.512v-126.512h126.512v-126.512h126.512v126.512h126.512z" />
<glyph unicode="&#xe923;" d="M1023.237 448c0-282.348-228.889-511.237-511.237-511.237s-511.237 228.889-511.237 511.237c0 282.348 228.889 511.237 511.237 511.237s511.237-228.889 511.237-511.237z" />
<glyph unicode="&#xe924;" d="M769.45 359.64c-23.807 0-36.473 10.377-46.393 18.771-8.546 7.173-14.193 11.903-27.164 11.903s-18.618-4.731-27.164-11.903c-10.072-8.393-22.586-18.771-46.545-18.771-23.807 0-36.473 10.377-46.393 18.771-8.546 7.173-14.193 11.903-27.164 11.903s-18.618-4.731-27.164-11.903c-10.072-8.393-22.586-18.771-46.545-18.771-23.807 0-36.473 10.377-46.393 18.771-8.393 7.325-14.040 11.903-27.012 11.903s-18.618-4.731-27.164-11.903c-10.072-8.393-22.586-18.771-46.545-18.771-23.807 0-36.473 10.377-46.393 18.771-8.546 7.173-14.193 11.903-27.164 11.903v29.911c23.807 0 36.473-10.377 46.393-18.771 8.546-7.173 14.193-11.903 27.164-11.903s18.618 4.731 27.164 11.903c10.072 8.393 22.586 18.771 46.393 18.771s36.473-10.377 46.393-18.771c8.546-7.173 14.193-11.903 27.164-11.903s18.618 4.731 27.164 11.903c10.072 8.393 22.586 18.771 46.393 18.771s36.473-10.377 46.545-18.771c8.546-7.173 14.193-11.903 27.164-11.903s18.618 4.731 27.164 11.903c10.072 8.393 22.586 18.771 46.545 18.771 23.807 0 36.473-10.377 46.545-18.771 8.546-7.173 14.193-11.903 27.164-11.903l-0.153-29.911zM659.419 593.893c-35.863 0-65.011-28.843-65.011-64.553s29.148-64.553 65.011-64.553c35.863 0 65.011 28.843 65.011 64.553s-29.148 64.553-65.011 64.553zM490.635 518.047l32.048-18.008-84.697-66.69c3.663-2.594 6.867-5.189 9.92-7.783 8.851-7.478 14.803-12.361 28.232-12.361s19.381 4.883 28.232 12.361c10.53 8.699 23.502 19.686 48.377 19.686s37.847-10.835 48.377-19.686c2.747-2.289 5.189-4.273 7.63-6.104l9.004 16.634-54.481 88.36-69.284 30.369-102.705-48.529 16.482-21.060 82.866 32.811zM769.45 332.018c-12.972 0-18.618 4.731-27.164 11.903-10.072 8.393-22.586 18.771-46.545 18.771-23.807 0-36.473-10.377-46.545-18.771-8.546-7.173-14.193-11.903-27.164-11.903s-18.618 4.731-27.164 11.903c-10.072 8.393-22.586 18.771-46.545 18.771s-36.015-10.53-46.088-18.923c-8.546-7.173-14.193-11.903-27.164-11.903s-18.618 4.731-27.164 11.903c-10.072 8.393-22.586 18.771-46.393 18.771s-36.321-10.377-46.393-18.771c-8.546-7.173-14.193-11.903-27.164-11.903s-18.618 4.731-27.164 11.903c-10.072 8.393-22.586 18.771-46.393 18.771v-29.911c12.972 0 18.618-4.731 27.164-11.903 10.072-8.393 22.586-18.771 46.393-18.771s36.473 10.377 46.545 18.771c8.546 7.173 14.193 11.903 27.164 11.903s18.618-4.731 27.164-11.903c10.072-8.393 22.586-18.771 46.393-18.771s36.473 10.377 46.545 18.771c8.546 7.173 14.193 11.903 27.164 11.903s18.618-4.731 27.164-11.903c10.072-8.393 22.586-18.771 46.393-18.771s36.473 10.377 46.545 18.771c8.546 7.173 14.193 11.903 27.164 11.903s18.618-4.731 27.164-11.903c10.072-8.393 22.586-18.771 46.393-18.771l-0.305 30.064z" />
<glyph unicode="&#xe925;" d="M1023.237 448c0-282.348-228.889-511.237-511.237-511.237s-511.237 228.889-511.237 511.237c0 282.348 228.889 511.237 511.237 511.237s511.237-228.889 511.237-511.237z" />
<glyph unicode="&#xe926;" d="M409.295 653.2c-11.446 0-22.739-11.446-22.739-22.739v-113.998c0-22.739 22.739-22.739 22.739-45.63v-205.105c0-11.446 11.446-22.739 22.739-22.739h22.739c11.446 0 22.739 11.446 22.739 22.739v205.105c0 22.739 22.739 22.739 22.739 45.63v113.998c0 11.446-11.446 22.739-22.739 22.739-5.646 0-5.646-7.020-5.646-11.446v-91.107c0-4.426 0-11.446-5.646-11.446s-5.646 7.020-5.646 11.446v91.107c0 4.426 0 11.446-5.646 11.446h-22.739c-5.646 0-5.646-7.020-5.646-11.446v-91.107c0-4.426 0-11.446-5.646-11.446s-5.646 7.020-5.646 11.446v91.107c-0.153 4.578-0.153 11.446-5.952 11.446zM637.291 653.2c-22.739 0-65.316-5.341-79.814-34.184-11.446-22.739-11.446-79.814-11.446-102.553v-91.107c0-11.446 11.446-22.739 22.739-22.739v-136.737c0-11.446 11.446-22.739 22.739-22.739h22.739c11.446 0 22.739 11.446 22.739 22.739v387.319z" />
<glyph unicode="&#xe927;" d="M1023.237 448c0-282.348-228.889-511.237-511.237-511.237s-511.237 228.889-511.237 511.237c0 282.348 228.889 511.237 511.237 511.237s511.237-228.889 511.237-511.237z" />
<glyph unicode="&#xe928;" d="M512 623.347l-238.069-125.291 238.069-125.291 137.805 69.742c0 0 0-63.18 0-94.77 0-50.055 50.055-50.055 50.055-50.055v25.028c0 0-25.028 1.373-25.028 25.028 0 37.542 0 108.81 0 108.81l75.236 41.509-238.069 125.291zM399.223 397.792v-50.055c0-12.514 8.088-29.148 25.028-37.542l87.75-37.694 75.236 37.542c16.939 8.393 38.762 25.18 37.542 37.542v50.055l-112.777-54.634-112.777 54.786z" />
<glyph unicode="&#xe929;" horiz-adv-x="1070" d="M89.199 885.073h891.986v-870.578h-891.986v870.578z" />
<glyph unicode="&#xe92a;" horiz-adv-x="1070" d="M1070.383-64h-1070.383v1024h1070.383v-1024zM103.47 39.47h863.443v817.059h-863.443z" />
<glyph unicode="&#xe92b;" horiz-adv-x="1070" d="M549.463 731.652c14.272-7.136 10.704-14.272 7.136-53.519s-17.84-114.174-46.383-189.101c-28.544-71.359-67.791-142.718-103.47-196.237s-67.791-85.631-89.199-107.038c-24.976-21.408-39.247-24.976-49.951-28.544s-14.272 0-17.84 3.568c-3.568 3.568-3.568 14.272 0 24.976s7.136 21.408 24.976 39.247c17.84 14.272 42.815 35.679 78.495 53.519s85.631 35.679 124.878 46.383c39.247 10.704 71.359 17.84 96.334 21.408 28.544 3.568 49.951 7.136 71.359 10.704s42.815 3.568 64.223 0c21.408 0 42.815-3.568 60.655-10.704 17.84-3.568 32.111-10.704 46.383-17.84s24.976-21.408 32.111-32.111c7.136-14.272 7.136-28.544 0-35.679-3.568-10.704-14.272-17.84-24.976-21.408s-24.976-3.568-39.247 0c-14.272 3.568-32.111 14.272-49.951 28.544s-35.679 28.544-60.655 53.519c-24.976 24.976-57.087 57.087-82.063 89.199s-46.383 64.223-60.655 92.767c-14.272 28.544-21.408 49.951-28.544 71.359s-10.704 42.815-14.272 64.223c-3.568 21.408 0 39.247 0 49.951 3.568 14.272 3.568 24.976 10.704 32.111 3.568 7.136 10.704 10.704 17.84 10.704 3.568 3.568 7.136 3.568 10.704 3.568s7.136 0 10.704 0c0 3.568 7.136 0 10.704-3.568z" />
<glyph unicode="&#xe92c;" glyph-name="add" d="M558.080 488.96v174.080h-92.16v-174.080h-174.080v-87.040h174.080v-174.080h92.16v174.080h174.080v87.040zM512 862.72c230.4 0 419.84-189.44 419.84-419.84s-189.44-419.84-419.84-419.84-419.84 189.44-419.84 419.84 189.44 419.84 419.84 419.84zM512 960c-281.6 0-512-230.4-512-512s230.4-512 512-512 512 230.4 512 512-230.4 512-512 512v0z" />
<glyph unicode="&#xe92d;" glyph-name="add-podborka" d="M1024 521.143h-438.857v438.857h-146.286v-438.857h-438.857v-146.286h438.857v-438.857h146.286v438.857h438.857z" />
<glyph unicode="&#xe92e;" glyph-name="add-podborka-complete" d="M1024 446.736c0-283.468-229.796-513.264-513.264-513.264s-513.264 229.796-513.264 513.264c0 283.468 229.796 513.264 513.264 513.264s513.264-229.796 513.264-513.264z" />
<glyph unicode="&#xe92f;" glyph-name="arrow" horiz-adv-x="569" d="M0-64v1024l568.889-512-568.889-512z" />
<glyph unicode="&#xe931;" glyph-name="clear-search" d="M961.422 960l62.578-62.578-961.422-961.422-62.578 62.578 961.422 961.422zM62.578 960l961.422-961.422-62.578-62.578-961.422 961.422 62.578 62.578z" />
<glyph unicode="&#xe932;" glyph-name="close-popup-tag" d="M512 345.6l399.36-409.6 112.64 122.88-389.12 389.12 389.12 399.36-112.64 112.64-399.36-399.36zM512 560.64l-399.36 399.36-112.64-112.64 389.12-399.36-389.12-389.12 112.64-122.88 399.36 409.6z" />
<glyph unicode="&#xe933;" glyph-name="comment" horiz-adv-x="1170" d="M585.143 777.143c-219.429 0-402.286-117.029-402.286-256 0-10.971 7.314-18.286 18.286-18.286s18.286 7.314 18.286 18.286c0 117.029 171.886 219.429 365.714 219.429 10.971 0 18.286 7.314 18.286 18.286s-7.314 18.286-18.286 18.286zM585.143 960c-321.829 0-585.143-197.486-585.143-438.857 0-149.943 102.4-285.257 256-362.057 0 0 0 0 0-3.657 0-65.829-47.543-135.314-69.486-171.886 0 0 0 0 0 0 0-3.657-3.657-7.314-3.657-14.629 0-18.286 14.629-32.914 32.914-32.914 3.657 0 10.971 0 10.971 0 113.371 18.286 223.086 124.343 248.686 153.6 36.571-3.657 73.143-7.314 113.371-7.314 321.829 0 585.143 197.486 585.143 438.857s-266.971 438.857-588.8 438.857zM585.143 155.429c-32.914 0-69.486 3.657-102.4 7.314-3.657 0-7.314 0-10.971 0-21.943 0-43.886-10.971-54.857-25.6-14.629-18.286-58.514-62.171-113.371-91.429 14.629 32.914 25.6 69.486 25.6 106.057 0 3.657 0 3.657 0 7.314 0 29.257-14.629 51.2-40.229 65.829-135.314 69.486-215.771 179.2-215.771 296.229 0 201.143 230.4 365.714 512 365.714s512-164.571 512-365.714-230.4-365.714-512-365.714z" />
<glyph unicode="&#xe934;" glyph-name="edit" d="M0 152.178v-216.178h216.178l625.778 631.467-216.178 216.178-625.778-631.467zM1006.933 732.444c22.756 22.756 22.756 56.889 0 79.644l-130.844 130.844c-22.756 22.756-56.889 22.756-79.644 0l-102.4-102.4 216.178-216.178 96.711 108.089z" />
<glyph unicode="&#xe935;" glyph-name="filter" horiz-adv-x="1229" d="M477.867-64l273.067 170.667v273.067l477.867 580.267h-1228.8l477.867-580.267z" />
<glyph unicode="&#xe936;" glyph-name="filter-a-z" d="M0 960h512v-256h-512v256zM0 576h768v-256h-768v256zM0 192h1024v-256h-1024v256z" />
<glyph unicode="&#xe937;" glyph-name="like" horiz-adv-x="1122" d="M561.096 815.050c-191.708 289.9-561.096 98.192-561.096-168.329 0-205.735 322.63-383.416 561.096-710.721 238.466 327.306 561.096 504.986 561.096 710.721 0 271.196-360.037 458.228-561.096 168.329z" />
<glyph unicode="&#xe938;" glyph-name="like-active" horiz-adv-x="1122" d="M561.096 815.050c-191.708 289.9-561.096 98.192-561.096-168.329 0-205.735 322.63-383.416 561.096-710.721 238.466 327.306 561.096 504.986 561.096 710.721 0 271.196-360.037 458.228-561.096 168.329z" />
<glyph unicode="&#xe939;" glyph-name="metro_mos" horiz-adv-x="1463" d="M731.429-68.389l236.983 413.989 99.474-280.869h-80.457v-122.88h475.429v122.88h-90.697l-340.846 898.194-299.886-552.96-299.886 552.96-340.846-898.194h-90.697v-122.88h475.429v122.88h-80.457l99.474 280.869z" />
<glyph unicode="&#xe93a;" d="M0 380.768l579.232 579.232h444.768l-1024-1024v444.768z" />
<glyph unicode="&#xe93b;" d="M158.255 377.665l-14.481-14.481 62.061-62.061 12.412 12.412-20.687 20.687 2.069 2.069c12.412 12.412 3.103 27.927-5.172 36.202s-23.79 17.584-36.202 5.172zM185.147 348.703l-1.034-1.034-14.481 14.481 1.034 1.034c3.103 3.103 6.206 2.069 11.378-3.103 7.24-6.206 5.172-9.309 3.103-11.378z" />
<glyph unicode="&#xe93c;" d="M242.036 337.325l22.756 22.756-14.481 15.515-11.378-11.378-10.343 9.309 10.343 10.343-13.446 13.446-10.343-9.309-8.275 8.275 11.378 11.378-15.515 14.481-22.756-22.756z" />
<glyph unicode="&#xe93d;" d="M266.861 421.107l-43.442 21.721-12.412-12.412 62.061-62.061 11.378 11.378-33.099 33.099 43.442-21.721 12.412 12.412-62.061 61.026-11.378-11.378z" />
<glyph unicode="&#xe93e;" d="M309.269 463.515l-43.442 21.721-12.412-12.412 62.061-62.061 11.378 11.378-33.099 33.099 44.477-21.721 12.412 12.412-62.061 62.061-12.412-12.412z" />
<glyph unicode="&#xe93f;" d="M330.99 510.061l-24.824 15.515-13.446-13.446 49.648-25.859 23.79-24.824 12.412 12.412-24.824 23.79-24.824 49.648-13.446-12.412z" />
<glyph unicode="&#xe940;" d="M360.986 580.396l-11.378-11.378 62.061-62.061 22.756 22.756-15.515 14.481-10.343-10.343z" />
<glyph unicode="&#xe941;" d="M387.879 607.289l49.648-74.473 12.412 12.412-8.275 12.412 10.343 10.343 12.412-8.275 12.412 12.412-74.473 49.648-14.481-14.481zM429.253 574.19l-14.481 19.653 19.653-14.481-5.172-5.172z" />
<glyph unicode="&#xe942;" d="M473.729 627.976l-43.442 21.721-12.412-12.412 62.061-62.061 11.378 11.378-33.099 34.133 44.477-22.756 12.412 12.412-62.061 62.061-11.378-11.378z" />
<glyph unicode="&#xe943;" d="M523.378 618.667l22.756 22.756-14.481 15.515-11.378-11.378-10.343 9.309 10.343 10.343-13.446 13.446-10.343-9.309-8.275 8.275 11.378 11.378-15.515 14.481-22.756-22.756z" />
<glyph unicode="&#xe944;" d="M562.683 741.754c-19.653 19.653-31.030 8.275-34.133 5.172l-14.481-14.481 62.061-62.061 12.412 12.412-16.549 16.549 21.721-11.378 13.446 13.446-35.168 14.481c3.103 12.412-6.206 22.756-9.309 25.859zM554.408 717.964v0l-14.481 13.446 1.034 1.034c4.137 4.137 10.343-2.069 11.378-3.103 0-1.034 6.206-7.24 2.069-11.378z" />
<glyph unicode="&#xe945;" d="M610.263 705.552l22.756 22.756-14.481 15.515-11.378-11.378-9.309 10.343 9.309 9.309-13.446 14.481-10.343-10.343-8.275 8.275 11.378 11.378-15.515 14.481-22.756-22.756z" />
<glyph unicode="&#xe946;" d="M587.507 806.917l49.648-74.473 12.412 12.412-8.275 12.412 10.343 10.343 12.412-8.275 12.412 12.412-74.473 49.648-14.481-14.481zM629.915 773.818l-14.481 19.653 19.653-14.481-5.172-5.172z" />
<glyph unicode="&#xe947;" d="M629.915 849.325l-11.378-11.378 62.061-62.061 22.756 22.756-15.515 14.481-10.343-10.343z" />
<glyph unicode="&#xe948;" d="M655.774 845.188l8.275 8.275 46.545-47.58 12.412 12.412-47.58 46.545 8.275 8.275-15.515 14.481-26.893-26.893z" />
<glyph unicode="&#xe949;" d="M696.113 915.523l14.481-24.824-24.824 14.481-13.446-13.446 49.648-25.859 24.824-23.79 11.378 11.378-23.79 24.824-25.859 49.648z" />
<glyph unicode="&#xe94a;" d="M114.812 211.135l62.061 62.061-62.061 62.061-62.061-62.061 62.061-62.061zM57.923 272.162l56.889 56.889 56.889-56.889-56.889-56.889-56.889 56.889z" />
<glyph unicode="&#xe94b;" d="M115.846 220.444l51.717 51.717-51.717 51.717-51.717-51.717 51.717-51.717zM135.499 246.303c-1.034-1.034-2.069-2.069-4.137-2.069s-3.103 1.034-4.137 2.069c-1.034 1.034-25.859 25.859-25.859 25.859l13.446 13.446 16.549-16.549 15.515 15.515 14.481-14.481c0 2.069-24.824-22.756-25.859-23.79zM85.851 288.711c0 0 22.756 22.756 25.859 25.859 1.034 1.034 2.069 2.069 4.137 2.069s2.069 0 4.137-2.069c1.034-1.034 25.859-25.859 25.859-25.859l-13.446-13.446-16.549 16.549-16.549-16.549-13.446 13.446zM69.301 273.196l13.446 13.446 46.545-46.545-13.446-13.446-46.545 46.545z" />
<glyph unicode="&#xe94c;" glyph-name="rouble" horiz-adv-x="787" d="M752.485 804.848c-23.273 38.788-54.303 73.697-93.091 96.97s-81.455 38.788-124.121 46.545c-46.545 7.758-89.212 11.636-135.758 11.636-42.667 0-85.333 0-128-3.879-38.788-3.879-81.455-7.758-120.242-15.515v-512h-155.152v-104.727h155.152v-104.727h-155.152v-104.727h155.152v-174.545h120.242v174.545h391.758v104.727h-391.758v104.727c0 0 46.545 0 62.061-3.879s23.273 0 34.909 0h23.273c50.424 0 96.97 3.879 147.394 15.515 46.545 11.636 89.212 31.030 128 58.182s65.939 62.061 89.212 104.727c23.273 50.424 34.909 100.848 34.909 155.152-3.879 50.424-15.515 100.848-38.788 151.273zM636.121 533.333c-15.515-27.152-34.909-50.424-62.061-69.818-27.152-15.515-58.182-27.152-89.212-34.909s-65.939-7.758-96.97-7.758h-23.273c-11.636 0-23.273 0-31.030 0s-58.182 0-58.182 0v422.788c19.394 3.879 34.909 7.758 54.303 7.758 23.273 0 46.545 0 73.697 0 31.030 0 62.061-3.879 93.091-11.636s58.182-19.394 85.333-34.909c23.273-15.515 46.545-38.788 58.182-62.061 15.515-31.030 23.273-65.939 23.273-100.848-3.879-31.030-11.636-69.818-27.152-108.606z" />
<glyph unicode="&#xe94d;" glyph-name="send-mail" horiz-adv-x="1357" d="M59 924.168h1250.732v-940.906h-1250.732v940.906z" />
<glyph unicode="&#xe94e;" glyph-name="warning" d="M563.2 192h-102.4v102.4h102.4v-102.4zM563.2 396.8h-102.4v307.2h102.4v-307.2zM512 862.72c230.4 0 419.84-189.44 419.84-419.84s-189.44-419.84-419.84-419.84-419.84 189.44-419.84 419.84 189.44 419.84 419.84 419.84zM512 960c-281.6 0-512-230.4-512-512s230.4-512 512-512 512 230.4 512 512-230.4 512-512 512v0z" />
<glyph unicode="&#xe94f;" horiz-adv-x="1070" d="M89.199 885.073h891.986v-870.578h-891.986v870.578z" />
<glyph unicode="&#xe950;" horiz-adv-x="1070" d="M1070.383-64h-1070.383v1024h1070.383v-1024zM103.47 39.47h863.443v817.059h-863.443z" />
<glyph unicode="&#xe951;" horiz-adv-x="1070" d="M884.85 663.861l-149.854-449.561h-121.31l-85.631 260.46-89.199-260.46h-124.878l-135.582 449.561h124.878l82.063-292.571 96.334 292.571h96.334l92.767-292.571 89.199 292.571h124.878z" />
<glyph unicode="&#xe952;" glyph-name="fire-popular" horiz-adv-x="829" d="M814.324 350.476c-46.324 173.105-177.981 248.686-273.067 365.714s-119.467 151.162-92.648 241.371c-124.343-102.4-146.286-182.857-117.029-307.2s-2.438-138.971-46.324-148.724c-43.886-9.752-65.829 34.133-58.514 78.019-68.267-43.886-280.381-153.6-212.114-397.41 51.2-131.657 170.667-216.99 312.076-243.81 36.571-4.876 78.019-4.876 114.59-4.876-17.067 0-31.695 2.438-48.762 2.438-97.524 17.067-177.981 75.581-212.114 165.79-46.324 165.79 97.524 241.371 143.848 270.629-2.438-29.257 9.752-60.952 41.448-53.638 29.257 7.314 53.638 17.067 31.695 102.4-19.505 85.333-4.876 138.971 78.019 209.676-17.067-60.952-2.438-85.333 63.39-165.79s156.038-134.095 187.733-251.124c43.886-168.229-73.143-238.933-141.41-265.752 95.086 36.571 299.886 136.533 229.181 402.286z" />
<glyph unicode="&#xe953;" glyph-name="d" horiz-adv-x="1022" d="M321.829 50.939c-135.837 64.784-234.057 198.531-248.686 355.265h-62.694c20.898-257.045 236.147-459.755 499.461-459.755 8.359 0 18.808 0 27.167 2.090l-158.824 158.824-56.424-56.424zM509.91 949.551c-10.449 0-18.808 0-27.167-2.090l158.824-158.824 56.424 56.424c135.837-64.784 234.057-196.441 248.686-355.265h62.694c-20.898 257.045-236.147 459.755-499.461 459.755zM409.6 399.935c2.090-6.269 4.18-14.629 4.18-22.988 0-16.718-4.18-29.257-14.629-39.706-8.359-8.359-22.988-12.539-39.706-12.539-8.359 0-14.629 2.090-22.988 4.18-6.269 2.090-12.539 6.269-16.718 10.449s-8.359 10.449-10.449 14.629c-2.090 6.269-4.18 12.539-4.18 18.808h-54.335c0-14.629 2.090-29.257 8.359-39.706s12.539-20.898 22.988-29.257c10.449-8.359 20.898-12.539 33.437-16.718s27.167-6.269 39.706-6.269c14.629 0 29.257 2.090 43.886 6.269 12.539 4.18 25.078 10.449 35.527 18.808s16.718 18.808 22.988 29.257c6.269 12.539 8.359 25.078 8.359 39.706 0 8.359 0 16.718-2.090 22.988-2.090 8.359-6.269 14.629-10.449 20.898s-10.449 12.539-16.718 18.808c-6.269 6.269-14.629 10.449-25.078 12.539 8.359 4.18 16.718 8.359 20.898 14.629 6.269 6.269 12.539 10.449 16.718 16.718s8.359 12.539 10.449 18.808 2.090 12.539 2.090 20.898c0 14.629-2.090 29.257-8.359 39.706-4.18 12.539-12.539 20.898-20.898 29.257s-20.898 12.539-33.437 16.718c-12.539 4.18-27.167 6.269-43.886 6.269-14.629 0-29.257-2.090-41.796-6.269s-22.988-10.449-33.437-18.808-16.718-16.718-20.898-29.257-8.359-22.988-8.359-35.527h54.335c0 6.269 2.090 12.539 4.18 18.808s6.269 10.449 10.449 14.629c4.18 4.18 10.449 6.269 16.718 8.359s12.539 4.18 20.898 4.18c16.718 0 29.257-4.18 37.616-12.539s12.539-20.898 12.539-35.527c0-8.359-2.090-14.629-4.18-20.898s-6.269-10.449-10.449-16.718-10.449-8.359-16.718-10.449c-6.269-2.090-14.629-4.18-25.078-4.18h-31.347v-41.796h31.347c8.359 0 16.718 0 25.078-2.090zM509.91 280.816h96.131c22.988 0 43.886 4.18 62.694 10.449 18.808 8.359 35.527 18.808 48.065 31.347s22.988 31.347 31.347 50.155c8.359 18.808 10.449 41.796 10.449 64.784v16.718c0 25.078-4.18 45.976-10.449 64.784-8.359 18.808-16.718 35.527-31.347 50.155s-29.257 25.078-48.065 31.347c-18.808 8.359-39.706 10.449-60.604 10.449h-98.22zM700.082 439.641c0-16.718-2.090-33.437-6.269-48.065s-10.449-25.078-18.808-35.527c-8.359-10.449-16.718-16.718-29.257-22.988-12.539-4.18-25.078-8.359-41.796-8.359h-37.616v240.327h41.796c29.257 0 52.245-10.449 68.963-29.257s22.988-45.976 22.988-83.592v-12.539z" />
<glyph unicode="&#xe954;" glyph-name="etazh" d="M966.4 920h-913.6c-30.4 0-54.4-24-54.4-54.4v-833.6c0-30.4 24-54.4 54.4-54.4h913.6c30.4 0 54.4 24 54.4 54.4v833.6c0 30.4-24 54.4-54.4 54.4zM966.4 83.2c0-25.6-22.4-48-48-48h-814.4c-27.2 0-48 20.8-48 48v734.4c0 25.6 22.4 48 48 48h814.4c27.2 0 48-20.8 48-48v-734.4zM376 726.4c0-45.066-36.534-81.6-81.6-81.6s-81.6 36.534-81.6 81.6c0 45.066 36.534 81.6 81.6 81.6s81.6-36.534 81.6-81.6zM388.8 606.4h-195.2c-32 0-57.6-24-57.6-54.4v-168c0-25.6 20.8-48 46.4-52.8v0c0 0 16 0 19.2-20.8 6.4-40 19.2-131.2 22.4-169.6 6.4-48 35.2-49.6 35.2-49.6s27.2-6.4 62.4 0c35.2 6.4 38.4 46.4 38.4 46.4l22.4 174.4c1.6 14.4 14.4 16 14.4 16v0c27.2 3.2 48 25.6 48 52.8v168c1.6 33.6-24 57.6-56 57.6zM868.8 558.4c0 0 0 0 0 0l-134.4 134.4c0 0 0 0 0 0-22.4 22.4-40 8-46.4 3.2l-131.2-131.2c-46.4-46.4-6.4-57.6 0-57.6h312c1.6 0 43.2 9.6 0 51.2zM873.6 388.8h-318.4c0 0 0 0 0 0-44.8 0-19.2-32-6.4-44.8l140.8-140.8c6.4-4.8 27.2-22.4 51.2 1.6l134.4 132.8c46.4 48-1.6 51.2-1.6 51.2z" />
<glyph unicode="&#xe955;" d="M1024 8.533c0-40.107-32.853-72.533-72.533-72.533h-878.933c-40.107 0-72.533 32.853-72.533 72.533v878.933c0 40.107 32.853 72.533 72.533 72.533h878.933c40.107 0 72.533-32.853 72.533-72.533v-878.933z" />
<glyph unicode="&#xe956;" d="M415.147 360.107v-209.92h-122.453v595.2h232.107c44.8 0 84.053-8.107 117.76-24.32s60.16-39.68 78.080-69.547c18.347-30.293 27.307-64.427 27.307-102.827 0-58.453-20.053-104.107-59.733-137.813-40.107-33.707-95.147-50.347-165.973-50.347h-107.093zM415.147 459.52h109.653c32.427 0 57.173 7.68 74.24 23.040s25.6 37.12 25.6 65.28c0 29.013-8.533 52.907-25.6 70.827s-40.96 27.307-71.253 27.733h-112.213v-186.88z" />
<glyph unicode="&#xe957;" d="M701.44 437.76l-276.48-194.56v409.6l276.48-215.040z" />
<glyph unicode="&#xe958;" d="M972.8 448c0-254.493-206.307-460.8-460.8-460.8s-460.8 206.307-460.8 460.8c0 254.493 206.307 460.8 460.8 460.8s460.8-206.307 460.8-460.8z" />
<glyph unicode="&#xe959;" glyph-name="rent" d="M196.923 609.477c23.631 0 47.262 19.692 47.262 47.262v224.492h-90.585v-224.492c0-27.569 19.692-47.262 43.323-47.262zM854.646 609.477c23.631 0 47.262 19.692 47.262 47.262v224.492h-94.523v-224.492c0-27.569 19.692-47.262 47.262-47.262zM960.985 739.446h-27.569v-82.708c0-43.323-35.446-78.769-78.769-78.769s-78.769 35.446-78.769 78.769v82.708h-496.246v-82.708c0-43.323-35.446-78.769-78.769-78.769s-78.769 35.446-78.769 78.769v82.708h-55.138c-35.446 0-66.954-31.508-66.954-74.831v-559.262c0-39.385 31.508-74.831 66.954-74.831h894.031c35.446 0 66.954 31.508 66.954 74.831v559.262c-3.938 43.323-31.508 74.831-66.954 74.831zM200.862 195.938c-3.938 7.877-11.815 27.569-19.692 63.015-7.877 31.508-19.692 43.323-43.323 43.323h-15.754v-102.4h-59.077v259.938c19.692 3.938 47.262 3.938 78.769 3.938 39.385 0 66.954-3.938 86.646-19.692 15.754-11.815 23.631-31.508 23.631-55.138 0-35.446-23.631-55.138-47.262-66.954v0c19.692-7.877 27.569-23.631 35.446-51.2 7.877-31.508 15.754-63.015 19.692-74.831 0 0-59.077 0-59.077 0zM464.738 195.938h-169.354v263.877h161.477v-47.262h-102.4v-55.138h98.462v-47.262h-98.462v-63.015h110.277v-51.2zM724.677 195.938h-63.015l-55.138 102.4c-15.754 27.569-31.508 63.015-47.262 94.523v0c0-35.446 3.938-70.892 3.938-114.215v-78.769h-55.138v263.877h70.892l55.138-98.462c15.754-27.569 31.508-59.077 43.323-90.585v0c-7.877 35.446-7.877 70.892-7.877 110.277v78.769h55.138v-267.815zM957.046 412.554h-70.892v-212.677h-59.077v212.677h-70.892v51.2h204.8v-51.2h-3.938zM149.662 420.431c-15.754 0-23.631 0-27.569 0v-74.831h23.631c31.508 0 47.262 15.754 47.262 39.385s-15.754 35.446-43.323 35.446z" />
<glyph unicode="&#xe95a;" glyph-name="sale" d="M196.923 609.477c23.631 0 47.262 19.692 47.262 47.262v224.492h-90.585v-224.492c0-27.569 19.692-47.262 43.323-47.262zM854.646 609.477c23.631 0 47.262 19.692 47.262 47.262v224.492h-94.523v-224.492c0-27.569 19.692-47.262 47.262-47.262zM960.985 739.446h-27.569v-82.708c0-43.323-35.446-78.769-78.769-78.769s-78.769 35.446-78.769 78.769v82.708h-496.246v-82.708c0-43.323-35.446-78.769-78.769-78.769s-78.769 35.446-78.769 78.769v82.708h-55.138c-35.446 0-66.954-31.508-66.954-74.831v-559.262c0-39.385 31.508-74.831 66.954-74.831h894.031c35.446 0 66.954 31.508 66.954 74.831v559.262c-3.938 43.323-31.508 74.831-66.954 74.831zM145.723 195.938c-31.508 0-63.015 7.877-78.769 15.754l11.815 51.2c15.754-7.877 43.323-15.754 66.954-15.754 27.569 0 43.323 11.815 43.323 31.508 0 15.754-11.815 27.569-47.262 39.385-47.262 15.754-74.831 39.385-74.831 78.769 0 47.262 39.385 82.708 102.4 82.708 31.508 0 55.138-7.877 70.892-11.815l-15.754-51.2c-11.815 3.938-31.508 11.815-59.077 11.815s-39.385-11.815-39.385-27.569c0-15.754 15.754-23.631 51.2-39.385 47.262-19.692 70.892-43.323 70.892-82.708 7.877-43.323-27.569-82.708-102.4-82.708zM460.8 199.877l-19.692 70.892h-78.769l-19.692-70.892h-63.015l82.708 271.754h82.708l86.646-271.754h-70.892zM732.554 199.877h-169.354v271.754h63.015v-220.554h110.277v-51.2h-3.938zM945.231 199.877h-173.292v271.754h169.354v-51.2h-106.338v-55.138h102.4v-51.2h-102.4v-63.015h110.277v-51.2zM397.785 424.369v0c-3.938-15.754-7.877-35.446-11.815-51.2l-15.754-59.077h59.077l-15.754 59.077c-3.938 15.754-7.877 35.446-15.754 51.2z" />
<glyph unicode="&#xe95b;" glyph-name="sanuzel" d="M981.333 490.667h-853.333v341.333c0 46.933 38.4 85.333 85.333 85.333s85.333-38.4 85.333-85.333v-46.933c-17.067-4.267-34.133-21.333-38.4-38.4h119.467c-4.267 17.067-21.333 34.133-38.4 38.4v46.933c0 72.533-55.467 128-128 128s-128-55.467-128-128v-341.333h-42.667c-25.6 0-42.667-17.067-42.667-42.667v-170.667c0-93.867 51.2-179.2 128-221.867v-34.133c0-46.933 38.4-85.333 85.333-85.333s85.333 38.4 85.333 85.333h426.667c0-46.933 38.4-85.333 85.333-85.333s85.333 38.4 85.333 85.333v34.133c76.8 42.667 128 128 128 221.867v170.667c0 25.6-17.067 42.667-42.667 42.667zM213.333-21.333c-25.6 0-42.667 17.067-42.667 42.667v12.8c25.6-8.533 55.467-12.8 85.333-12.8 0-25.6-17.067-42.667-42.667-42.667zM853.333 21.333c0-25.6-17.067-42.667-42.667-42.667s-42.667 17.067-42.667 42.667c29.867 0 59.733 4.267 85.333 12.8v-12.8zM938.667 277.333c0-93.867-76.8-170.667-170.667-170.667h-512c-93.867 0-170.667 76.8-170.667 170.667v42.667h853.333v-42.667zM938.667 362.667h-853.333v42.667h853.333v-42.667z" />
<glyph unicode="&#xe95c;" glyph-name="s-m2" d="M664 680h-584c-44 0-80-36-80-80v-584c0-44 36-80 80-80h584c44 0 80 36 80 80v584c0 44-36 80-80 80zM664 16h-584v584h584v-584zM744 840l-138.4 120v-80h-459.2v80l-138.4-120 138.4-120v80h459.2v-80zM944 533.6h80l-120 138.4-120-138.4h80v-459.2h80zM784 74.4l120-138.4 120 138.4z" />
<glyph unicode="&#xe95d;" glyph-name="x-komnat" d="M1006.933 64c0-8.533-8.533-17.067-17.067-17.067h-17.067c-12.8 0-21.333 8.533-25.6 17.067l-25.6 68.267h-836.267l-25.6-68.267c-4.267-8.533-12.8-17.067-25.6-17.067h-17.067c-8.533 0-17.067 8.533-17.067 17.067v136.533c0 4.267 8.533 12.8 17.067 12.8h977.067c8.533 0 17.067-8.533 17.067-17.067v-132.267zM925.867 499.2h-51.2v85.333c0 17.067-17.067 34.133-34.133 34.133h-277.333c-17.067 0-34.133-17.067-34.133-34.133v-85.333h-51.2v85.333c0 17.067-17.067 34.133-34.133 34.133h-277.333c-17.067 0-34.133-17.067-34.133-34.133v-85.333h-46.933v260.267c-17.067 8.533-25.6 25.6-25.6 42.667 0 29.867 21.333 51.2 51.2 51.2s51.2-21.333 51.2-51.2c0-17.067-8.533-34.133-25.6-42.667v-25.6h738.133v25.6c-17.067 8.533-25.6 25.6-25.6 42.667 0 29.867 21.333 51.2 51.2 51.2s51.2-21.333 51.2-51.2c0-17.067-8.533-34.133-25.6-42.667v-260.267zM17.067 264.533c-8.533 0-17.067 8.533-17.067 17.067v102.4c0 38.4 29.867 68.267 68.267 68.267h874.667c38.4 0 68.267-29.867 68.267-68.267v-102.4c0-8.533-8.533-17.067-17.067-17.067h-977.067z" />
<glyph unicode="&#xe95e;" glyph-name="circle-check" d="M512 960c-282.042 0-512-229.958-512-512s229.958-512 512-512 512 229.958 512 512c0.983 282.042-228.975 512-512 512zM761.612 577.72l-343.954-343.954-156.253 156.253c-15.724 15.724-15.724 40.292 0 56.015 6.879 7.862 16.706 11.793 27.516 11.793 9.827 0 19.655-3.931 27.516-11.793l101.221-101.221 288.921 288.921c15.724 14.741 41.274 14.741 55.033-0.983 7.862-6.879 11.793-16.706 11.793-27.516 0-9.827-3.931-19.655-11.793-27.516z" />
<glyph unicode="&#xe95f;" glyph-name="error" d="M512 960c-282.060 0-512-229.94-512-512s229.94-512 512-512v0c282.060 0 512 229.94 512 512s-229.94 512-512 512zM559.010 211.928h-94.020v94.020h94.020v-94.020zM559.010 400.99h-94.020v283.082h94.020v-283.082z" />
<glyph unicode="&#xe960;" glyph-name="bedroom" horiz-adv-x="1281" d="M1281.191-44.949c0-9.526-9.526-19.051-19.051-19.051h-19.051c-14.288 0-28.577 9.526-33.34 23.814l-33.34 85.73h-1066.865l-33.34-85.73c-4.763-14.288-19.051-23.814-33.34-23.814h-19.051c-9.526 0-19.051 9.526-19.051 19.051v171.46c0 9.526 9.526 19.051 19.051 19.051h1238.326c9.526 0 19.051-9.526 19.051-19.051v-171.46zM1176.409 512.298h-61.916v104.781c0 23.814-19.051 42.865-42.865 42.865h-352.447c-23.814 0-42.865-19.051-42.865-42.865v-104.781h-61.916v104.781c0 23.814-19.051 42.865-42.865 42.865h-352.447c-23.814 0-42.865-19.051-42.865-42.865v-104.781h-61.916v328.633c-19.051 9.526-33.34 33.34-33.34 57.153 0 33.34 28.577 61.916 61.916 61.916s61.916-28.577 61.916-61.916c0-23.814-14.288-42.865-33.34-57.153v-28.577h938.27v28.577c-19.051 9.526-33.34 33.34-33.34 57.153 0 33.34 28.577 61.916 61.916 61.916s61.916-28.577 61.916-61.916c0-23.814-14.288-42.865-33.34-57.153v-328.633h9.526zM19.051 212.242c-9.526 0-19.051 9.526-19.051 19.051v128.595c0 47.628 38.102 85.73 85.73 85.73h1109.73c47.628 0 85.73-38.102 85.73-85.73v-128.595c0-9.526-9.526-19.051-19.051-19.051h-1243.088z" />
<glyph unicode="&#xe961;" glyph-name="forest" horiz-adv-x="1010" d="M685.842 402.753c0 0 0 0-128.595-19.051v138.121c19.051-9.526 42.865-14.288 66.679-14.288 85.73 0 152.409 66.679 152.409 152.409 0 71.442-47.628 128.595-109.544 147.647v0c0 85.73-66.679 152.409-152.409 152.409-80.967 0-147.647-66.679-152.409-147.647-80.967-4.763-138.121-71.442-138.121-152.409 0-85.73 66.679-152.409 152.409-152.409 23.814 0 52.391 4.763 71.442 19.051v-157.172c-38.102-4.763-80.967-9.526-133.358-19.051-23.814-4.763-42.865-9.526-61.916-14.288v119.070c14.288-9.526 33.34-9.526 52.391-9.526 28.577 0 57.153 14.288 80.967 33.34-4.763 0-9.526 0-9.526 0-104.781-4.763-185.749 76.205-185.749 176.223 0 47.628 19.051 95.256 52.391 128.595-4.763 0-14.288 0-23.814 0-61.916 0-114.307-47.628-114.307-109.544-57.153-4.763-104.781-57.153-104.781-114.307 0-61.916 52.391-114.307 114.307-114.307 19.051 0 38.102 4.763 52.391 14.288v-161.935c-147.647-119.070 23.814-361.972 23.814-361.972 0 233.377 133.358 295.293 361.972 304.819 223.851 9.526 133.358 161.935 133.358 161.935zM1000.186 274.158c-28.577 52.391-171.46 95.256-171.46 95.256s52.391-228.614-180.986-228.614-242.902-204.8-242.902-204.8c623.926 19.051 628.688 281.005 595.349 338.158z" />
<glyph unicode="&#xe962;" glyph-name="house" horiz-adv-x="1181" d="M1162.121 397.991l-562.009 562.009-581.060-581.060c-28.577-28.577-28.577-71.442 0-95.256 14.288-14.288 33.34-19.051 47.628-19.051 19.051 0 33.34 4.763 47.628 19.051l485.805 481.042 461.991-461.991c28.577-28.577 71.442-28.577 95.256 0 28.577 28.577 28.577 71.442 4.763 95.256zM204.8 274.158v-338.158h285.767v357.209h214.326v-357.209h290.53v342.921l-395.312 395.312z" />
<glyph unicode="&#xe963;" glyph-name="key" horiz-adv-x="2221" d="M809.29 960c-272.516 0-487.226-222.968-487.226-487.226 0-16.516 0-24.774 0-41.29-8.258 0-8.258-8.258-16.516-8.258-181.677-99.097-355.097-256-297.29-363.355 16.516-24.774 49.548-66.065 132.129-57.806 90.839 0 214.71 41.29 338.581 99.097 181.677 99.097 355.097 256 297.29 363.355-16.516 24.774-49.548 66.065-132.129 66.065-24.774 0-49.548 0-74.323-8.258 16.516 49.548 66.065 82.581 115.613 82.581 41.29 0 74.323-16.516 99.097-49.548 24.774-16.516 41.29-41.29 49.548-57.806 82.581-156.903-99.097-322.065-289.032-437.677 74.323-49.548 173.419-82.581 272.516-82.581 272.516 0 487.226 222.968 487.226 487.226-8.258 280.774-231.226 503.742-495.484 495.484zM693.677 423.226c16.516-24.774-66.065-140.387-264.258-239.484-107.355-57.806-214.71-90.839-297.29-90.839-33.032 0-49.548 8.258-57.806 16.516-16.516 24.774 57.806 132.129 247.742 239.484 8.258-41.29 24.774-74.323 41.29-107.355 8.258 0 8.258 8.258 16.516 8.258 90.839 49.548 148.645 90.839 181.677 123.871-8.258 0-8.258 0-16.516 0 8.258 8.258 16.516 16.516 24.774 16.516-16.516 16.516-24.774 24.774-24.774 41.29 24.774 8.258 57.806 8.258 82.581 8.258 49.548 0 66.065-8.258 66.065-16.516zM2006.71 687.484h-685.419c24.774-49.548 33.032-107.355 41.29-165.161v0h602.839c24.774 0 49.548-16.516 49.548-49.548 0-24.774-16.516-49.548-49.548-49.548h-602.839c-8.258-57.806-16.516-115.613-41.29-165.161h173.419v-189.935c0-57.806 49.548-107.355 107.355-107.355s107.355 49.548 107.355 107.355v189.935h132.129v-189.935c0-74.323 57.806-132.129 132.129-132.129s132.129 57.806 132.129 132.129v214.71c66.065 33.032 115.613 107.355 115.613 189.935-8.258 123.871-99.097 214.71-214.71 214.71z" />
<glyph unicode="&#xe964;" glyph-name="pool3" horiz-adv-x="1143" d="M1081.153 898.084l-452.465 61.916-138.121-347.684-290.53-190.512 171.46-85.73 190.512 95.256 190.512-95.256-147.647 176.223 119.070 290.53 338.158-47.628c38.102-4.763 76.205 23.814 80.967 61.916s-23.814 76.205-61.916 80.967zM838.251 688.521c-71.442 0-128.595-57.153-128.595-128.595s57.153-128.595 128.595-128.595 128.595 57.153 128.595 128.595-57.153 128.595-128.595 128.595zM752.521 236.056l-190.512 95.256-190.512-95.256-190.512 95.256-180.986-85.73v-90.493l176.223 85.73 190.512-95.256 190.512 95.256 190.512-95.256 190.512 95.256 171.46-85.73v90.493l-171.46 85.73-185.749-95.256zM752.521 26.493l-190.512 95.256-190.512-95.256-190.512 95.256-176.223-85.73v-90.493l176.223 85.73 190.512-95.256 190.512 95.256 190.512-95.256 190.512 95.256 171.46-85.73v90.493l-171.46 85.73-190.512-95.256z" />
<glyph unicode="&#xe965;" glyph-name="repairs" horiz-adv-x="1176" d="M599.658 960.724l522.004-522.004-191.963-191.963-522.004 522.004 191.963 191.963zM881.116-21.135l295.293 295.293-76.205 76.205-71.442-66.679 14.288-14.288-166.698-166.698-419.126 342.921-114.307-114.307c-38.102 38.102-100.019 38.102-133.358 0l-180.986-180.986c-38.102-38.102-38.102-100.019 0-133.358l52.391-52.391c38.102-38.102 100.019-38.102 133.358 0l180.986 180.986c33.34 33.34 38.102 76.205 14.288 114.307l52.391 52.391 419.126-333.395z" />
<glyph unicode="&#xe966;" glyph-name="tao" d="M1024 507.57c0-249.87-202.56-452.43-452.43-452.43s-452.43 202.56-452.43 452.43c0 249.87 202.56 452.43 452.43 452.43s452.43-202.56 452.43-452.43zM226.215 49.108c0-62.468-50.64-113.108-113.108-113.108s-113.108 50.64-113.108 113.108c0 62.468 50.64 113.108 113.108 113.108s113.108-50.64 113.108-113.108z" />
</font>
</defs>
</svg>
