<?xml version="1.0" encoding="utf-8"?>
<svg version="1.1" id="location" xmlns="http://www.w3.org/2000/svg" xmlns:xlink="http://www.w3.org/1999/xlink" x="0px" y="0px"
	 viewBox="-559.9 746.3 31.8 47.8" style="enable-background:new -559.9 746.3 31.8 47.8;" xml:space="preserve">
<style type="text/css">
	.st0{fill:#15A4FA;}
</style>
<path class="st0" d="M-544,746.3c-8.8,0-15.9,7.1-15.9,15.9c0,14.1,14.6,30.9,15.2,31.6c0.2,0.2,0.4,0.3,0.7,0.3
	c0.3,0,0.5-0.1,0.7-0.3c0.6-0.7,15.2-17.8,15.2-31.6C-528.1,753.4-535.2,746.3-544,746.3z M-544,770.1c-3.8,0-6.9-3.1-6.9-6.9
	s3.1-6.9,6.9-6.9c3.8,0,6.9,3.1,6.9,6.9S-540.2,770.1-544,770.1z"/>
</svg>
