<?xml version="1.0" encoding="utf-8"?>
<svg version="1.1" xmlns="http://www.w3.org/2000/svg" xmlns:xlink="http://www.w3.org/1999/xlink" x="0px" y="0px"
	 viewBox="-8436 4872.9 60 60" style="enable-background:new -8436 4872.9 60 60;" xml:space="preserve">
<style type="text/css">
	.st0{fill:#B9B8B8;}
</style>
<g id="Layer_1">
	<g>
		<path class="st0" d="M-8406,4879.9c12.7,0,23,10.3,23,23s-10.3,23-23,23s-23-10.3-23-23S-8418.7,4879.9-8406,4879.9 M-8406,4872.9
			c-16.6,0-30,13.4-30,30s13.4,30,30,30s30-13.4,30-30S-8389.4,4872.9-8406,4872.9L-8406,4872.9z"/>
	</g>
</g>
<g id="Layer_2">
	<path class="st0" d="M-8406,4912.9c-5.5,0-10-4.5-10-10s4.5-10,10-10s10,4.5,10,10S-8400.5,4912.9-8406,4912.9z"/>
</g>
</svg>
