<?xml version="1.0" encoding="utf-8"?>
<svg version="1.1" id="Layer_3" xmlns="http://www.w3.org/2000/svg" xmlns:xlink="http://www.w3.org/1999/xlink" x="0px" y="0px"
	 viewBox="-482.5 664.5 130 130" style="enable-background:new -482.5 664.5 130 130;" xml:space="preserve">
<style type="text/css">
	.st0{fill:#777777;}
	.st1{fill:#FFFFFF;}
</style>
<g>
	<path class="st0" d="M-417.5,664.5c-27.1,0-35.1,0-36.6,0.2c-5.6,0.5-9,1.3-12.8,3.2c-2.9,1.4-5.2,3.1-7.5,5.5
		c-4.1,4.3-6.6,9.5-7.5,15.8c-0.4,3-0.6,3.7-0.6,19.2c0,5.2,0,12,0,21.1c0,27.1,0,35,0.2,36.6c0.4,5.4,1.3,8.8,3.1,12.6
		c3.4,7.1,10,12.5,17.8,14.5c2.7,0.7,5.6,1.1,9.4,1.3c1.6,0.1,18,0.1,34.4,0.1c16.4,0,32.8,0,34.4-0.1c4.4-0.2,7-0.5,9.8-1.3
		c7.8-2,14.2-7.3,17.8-14.5c1.8-3.6,2.7-7.2,3.1-12.3c0.1-1.1,0.1-19,0.1-36.8c0-17.8,0-35.7-0.1-36.8c-0.4-5.2-1.3-8.7-3.1-12.4
		c-1.5-3-3.2-5.3-5.6-7.6c-4.3-4.1-9.6-6.6-15.8-7.5c-3-0.4-3.6-0.6-19.2-0.6L-417.5,664.5L-417.5,664.5z"/>
	<path id="f" class="st1" d="M-394,794.5v-48h16l4-20h-20v-8c0-8,4-12,12-12h8v-20c-4,0-9,0-16,0c-14.7,0-24,11.5-24,28v12h-16v20
		h16v48H-394z"/>
</g>
</svg>
