<?xml version="1.0" encoding="utf-8"?>
<svg version="1.1" id="Layer_1" xmlns="http://www.w3.org/2000/svg" xmlns:xlink="http://www.w3.org/1999/xlink" x="0px" y="0px"
	 viewBox="-238 332 130 130" style="enable-background:new -238 332 130 130;" xml:space="preserve">
<style type="text/css">
	.st0{fill:#777777;}
	.st1{fill:#777777;}
	.st2{fill:#FFFFFF;}
</style>
<radialGradient id="SVGID_1_" cx="-485.5649" cy="86.3024" r="65" gradientTransform="matrix(0 -1.982 -1.844 0 -45.266 -491.392)" gradientUnits="userSpaceOnUse">
	<stop  offset="0" style="stop-color:#FFDD55"/>
	<stop  offset="0.1" style="stop-color:#FFDD55"/>
	<stop  offset="0.5" style="stop-color:#FF543E"/>
	<stop  offset="1" style="stop-color:#C837AB"/>
</radialGradient>
<path class="st0" d="M-173,332c-27.1,0-35.1,0-36.6,0.2c-5.6,0.5-9,1.3-12.8,3.2c-2.9,1.4-5.2,3.1-7.5,5.5
	c-4.1,4.3-6.6,9.6-7.5,15.8c-0.4,3-0.6,3.7-0.6,19.2c0,5.2,0,12,0,21.1c0,27.1,0,35.1,0.2,36.6c0.4,5.4,1.3,8.8,3.1,12.6
	c3.4,7.1,10,12.5,17.8,14.5c2.7,0.7,5.6,1.1,9.4,1.3c1.6,0.1,18,0.1,34.4,0.1s32.8,0,34.4-0.1c4.4-0.2,7-0.6,9.8-1.3
	c7.8-2,14.2-7.3,17.8-14.5c1.8-3.6,2.7-7.2,3.1-12.3c0.1-1.1,0.1-19,0.1-36.8c0-17.8,0-35.7-0.1-36.8c-0.4-5.2-1.3-8.7-3.1-12.4
	c-1.5-3-3.2-5.3-5.6-7.6c-4.3-4.1-9.6-6.6-15.8-7.5c-3-0.4-3.6-0.6-19.2-0.6L-173,332L-173,332z"/>
<radialGradient id="SVGID_2_" cx="86.6312" cy="367.0143" r="65" gradientTransform="matrix(0.174 0.869 3.582 -0.717 -1590.588 528.187)" gradientUnits="userSpaceOnUse">
	<stop  offset="0" style="stop-color:#3771C8"/>
	<stop  offset="0.128" style="stop-color:#3771C8"/>
	<stop  offset="1" style="stop-color:#6600FF;stop-opacity:0"/>
</radialGradient>
<path class="st1" d="M-173,332c-27.1,0-35.1,0-36.6,0.2c-5.6,0.5-9,1.3-12.8,3.2c-2.9,1.4-5.2,3.1-7.5,5.5
	c-4.1,4.3-6.6,9.6-7.5,15.8c-0.4,3-0.6,3.7-0.6,19.2c0,5.2,0,12,0,21.1c0,27.1,0,35.1,0.2,36.6c0.4,5.4,1.3,8.8,3.1,12.6
	c3.4,7.1,10,12.5,17.8,14.5c2.7,0.7,5.6,1.1,9.4,1.3c1.6,0.1,18,0.1,34.4,0.1s32.8,0,34.4-0.1c4.4-0.2,7-0.6,9.8-1.3
	c7.8-2,14.2-7.3,17.8-14.5c1.8-3.6,2.7-7.2,3.1-12.3c0.1-1.1,0.1-19,0.1-36.8c0-17.8,0-35.7-0.1-36.8c-0.4-5.2-1.3-8.7-3.1-12.4
	c-1.5-3-3.2-5.3-5.6-7.6c-4.3-4.1-9.6-6.6-15.8-7.5c-3-0.4-3.6-0.6-19.2-0.6L-173,332L-173,332z"/>
<path class="st2" d="M-173,349c-13,0-14.7,0.1-19.8,0.3c-5.1,0.2-8.6,1-11.7,2.2c-3.2,1.2-5.8,2.9-8.5,5.5c-2.7,2.7-4.3,5.3-5.5,8.5
	c-1.2,3.1-2,6.5-2.2,11.6c-0.2,5.1-0.3,6.8-0.3,19.8s0.1,14.7,0.3,19.8c0.2,5.1,1,8.6,2.2,11.6c1.2,3.2,2.9,5.8,5.5,8.5
	c2.7,2.7,5.3,4.3,8.5,5.5c3.1,1.2,6.5,2,11.7,2.2c5.1,0.2,6.8,0.3,19.8,0.3c13,0,14.7-0.1,19.8-0.3c5.1-0.2,8.6-1,11.7-2.2
	c3.2-1.2,5.8-2.9,8.5-5.5c2.7-2.7,4.3-5.3,5.5-8.5c1.2-3.1,2-6.5,2.2-11.7c0.2-5.1,0.3-6.8,0.3-19.8s-0.1-14.7-0.3-19.8
	c-0.2-5.1-1.1-8.6-2.2-11.6c-1.2-3.2-2.9-5.8-5.5-8.5c-2.7-2.7-5.3-4.3-8.5-5.5c-3.1-1.2-6.6-2-11.7-2.2
	C-158.3,349.1-160,349-173,349L-173,349z M-177.3,357.6c1.3,0,2.7,0,4.3,0c12.8,0,14.3,0,19.4,0.3c4.7,0.2,7.2,1,8.9,1.7
	c2.2,0.9,3.8,1.9,5.5,3.6c1.7,1.7,2.7,3.3,3.6,5.5c0.7,1.7,1.4,4.2,1.7,8.9c0.2,5.1,0.3,6.6,0.3,19.4s-0.1,14.3-0.3,19.4
	c-0.2,4.7-1,7.2-1.7,8.9c-0.9,2.2-1.9,3.8-3.6,5.5c-1.7,1.7-3.3,2.7-5.5,3.6c-1.7,0.7-4.2,1.4-8.9,1.7c-5.1,0.2-6.6,0.3-19.4,0.3
	c-12.8,0-14.3,0-19.4-0.3c-4.7-0.2-7.2-1-8.9-1.7c-2.2-0.9-3.8-1.9-5.5-3.6c-1.7-1.7-2.7-3.3-3.6-5.5c-0.7-1.7-1.4-4.2-1.7-8.9
	c-0.2-5.1-0.3-6.6-0.3-19.4s0-14.3,0.3-19.4c0.2-4.7,1-7.2,1.7-8.9c0.9-2.2,1.9-3.8,3.6-5.5c1.7-1.7,3.3-2.7,5.5-3.6
	c1.7-0.7,4.2-1.4,8.9-1.7C-188,357.7-186.2,357.6-177.3,357.6L-177.3,357.6z M-147.4,365.6c-3.2,0-5.8,2.6-5.8,5.8
	c0,3.2,2.6,5.8,5.8,5.8c3.2,0,5.8-2.6,5.8-5.8C-141.6,368.2-144.2,365.6-147.4,365.6L-147.4,365.6z M-173,372.4
	c-13.6,0-24.6,11-24.6,24.6s11,24.6,24.6,24.6c13.6,0,24.6-11,24.6-24.6S-159.4,372.4-173,372.4L-173,372.4z M-173,381
	c8.8,0,16,7.2,16,16c0,8.8-7.2,16-16,16c-8.8,0-16-7.2-16-16C-189,388.2-181.8,381-173,381z"/>
</svg>
