<?xml version="1.0" encoding="utf-8"?>
<!-- Generator: Adobe Illustrator 19.0.0, SVG Export Plug-In . SVG Version: 6.00 Build 0)  -->
<svg version="1.1" id="Layer_1" xmlns="http://www.w3.org/2000/svg" xmlns:xlink="http://www.w3.org/1999/xlink" x="0px" y="0px"
	 viewBox="-482 666 128 128" style="enable-background:new -482 666 128 128;" xml:space="preserve">
<style type="text/css">
	.st0{fill:url(#SVGID_1_);}
	.st1{fill:#FFFFFF;}
</style>
<linearGradient id="SVGID_1_" gradientUnits="userSpaceOnUse" x1="-1063.1255" y1="-166.0148" x2="-960.8745" y2="-19.9852" gradientTransform="matrix(1 0 0 -1 594 637)">
	<stop  offset="0" style="stop-color:#FFB900"/>
	<stop  offset="1" style="stop-color:#9100EB"/>
</linearGradient>
<path class="st0" d="M-354,794h-128V666h128V794z"/>
<g>
	<g>
		<path class="st1" d="M-396,778h-44c-14.3,0-26-11.7-26-26v-44c0-14.3,11.7-26,26-26h44c14.3,0,26,11.7,26,26v44
			C-370,766.3-381.7,778-396,778z M-440,690c-9.9,0-18,8.1-18,18v44c0,9.9,8.1,18,18,18h44c9.9,0,18-8.1,18-18v-44
			c0-9.9-8.1-18-18-18H-440z"/>
	</g>
	<g>
		<path class="st1" d="M-418,754c-13.2,0-24-10.8-24-24s10.8-24,24-24s24,10.8,24,24S-404.8,754-418,754z M-418,714
			c-8.8,0-16,7.2-16,16s7.2,16,16,16s16-7.2,16-16S-409.2,714-418,714z"/>
	</g>
	<g>
		<circle class="st1" cx="-392.5" cy="704.5" r="5.5"/>
	</g>
</g>
</svg>
