<?xml version="1.0" encoding="utf-8"?>
<!-- Generator: Adobe Illustrator 19.0.0, SVG Export Plug-In . SVG Version: 6.00 Build 0)  -->
<svg version="1.1" id="Layer_1" xmlns="http://www.w3.org/2000/svg" xmlns:xlink="http://www.w3.org/1999/xlink" x="0px" y="0px"
	 viewBox="-275 367 60 60" style="enable-background:new -275 367 60 60;" xml:space="preserve">
<style type="text/css">
	.st0{fill:#CA4638;}
	.st1{fill:#FFFFFF;}
</style>
<g id="slices" transform="translate(173.000000, 138.000000)">
</g>
<g id="square-flat" transform="translate(173.000000, 138.000000)">
	<path id="square-16" class="st0" d="M-388,229v60h-60v-60H-388z"/>
</g>
<g id="icon" transform="translate(182.000000, 150.000000)">
	<path id="youtube" class="st1" d="M-407.8,239.1c0,0-0.4-2.6-1.5-3.8c-1.5-1.5-3.1-1.5-3.8-1.6c-5.4-0.4-13.4-0.4-13.4-0.4h0
		c0,0-8,0-13.4,0.4c-0.8,0.1-2.4,0.1-3.8,1.6c-1.2,1.2-1.5,3.8-1.5,3.8s-0.4,3.1-0.4,6.2v2.9c0,3.1,0.4,6.2,0.4,6.2s0.4,2.6,1.5,3.8
		c1.5,1.5,3.4,1.5,4.2,1.6c3.1,0.3,13,0.4,13,0.4s8.1,0,13.4-0.4c0.8-0.1,2.4-0.1,3.8-1.6c1.1-1.2,1.5-3.8,1.5-3.8s0.4-3.1,0.4-6.2
		v-2.9C-407.4,242.2-407.8,239.1-407.8,239.1z M-430.5,251.7l0-10.8l10.4,5.4L-430.5,251.7z"/>
</g>
</svg>
