<?xml version="1.0" encoding="utf-8"?>
<svg version="1.1" id="Layer_1" xmlns="http://www.w3.org/2000/svg" xmlns:xlink="http://www.w3.org/1999/xlink" x="0px" y="0px"
	 viewBox="0 0 33.5 15" style="enable-background:new 0 0 33.5 15;" xml:space="preserve">
<style type="text/css">
	.st0{fill:#BDC0C5;}
</style>
<g id="XMLID_29_">
	<path id="XMLID_31_" class="st0" d="M9.7,12.1H7.2V7H2.5v5.1H0V0.2h2.5V5h4.8V0.2h2.5V12.1z"/>
	<path id="XMLID_33_" class="st0" d="M22.9,15h-2.3v-2.9h-7.2V15h-2.3L11,10.1h0.9c0.5-0.4,0.9-1,1.1-1.8c0.3-0.8,0.4-1.8,0.5-2.9
		l0.3-5.3h7.8v9.9h1.4L22.9,15z M14.7,10.1h4.5v-8h-3L16,5.3C15.8,7.4,15.4,9,14.7,10.1z"/>
	<path id="XMLID_59_" class="st0" d="M33.5,8.1c-0.1,1.3-0.6,2.3-1.4,3c-0.9,0.7-2,1.1-3.4,1.1c-1.5,0-2.7-0.5-3.6-1.5
		c-0.9-1-1.3-2.4-1.3-4.2V5.7c0-1.1,0.2-2.2,0.6-3c0.4-0.9,1-1.5,1.7-2C26.8,0.2,27.7,0,28.7,0c1.4,0,2.5,0.4,3.3,1.1
		c0.8,0.7,1.3,1.8,1.5,3.1H31c-0.1-0.8-0.3-1.3-0.6-1.7C30,2.2,29.5,2,28.7,2c-0.8,0-1.4,0.3-1.8,0.9c-0.4,0.6-0.6,1.5-0.6,2.7v0.9
		c0,1.3,0.2,2.2,0.6,2.8c0.4,0.6,1,0.9,1.8,0.9c0.8,0,1.3-0.2,1.7-0.5C30.7,9.4,31,8.8,31,8.1H33.5z"/>
</g>
</svg>
