<?xml version="1.0" encoding="utf-8"?>
<svg version="1.1" id="Layer_2" opacity="0.1" xmlns="http://www.w3.org/2000/svg" xmlns:xlink="http://www.w3.org/1999/xlink"
	 x="0px" y="0px" viewBox="0 0 1300 1300" style="enable-background:new 0 0 1300 1300;" xml:space="preserve">
<style type="text/css">
	.st0{stroke:#191617;stroke-miterlimit:10;}
</style>
<path id="XMLID_13_" class="st0" d="M650,0C291,0,0,291,0,650s291,650,650,650s650-291,650-650S1009,0,650,0z M996.6,135.9
	c32.8,22.2,63.7,47.7,91.8,75.7c28.1,28.1,53.5,58.9,75.7,91.8c22.4,33.1,41.6,68.6,57.2,105.3c30.9,73.1,47.3,150.6,48.6,230.5
	h-102.5c-5.7-276-227.4-498.9-502.9-506.5V30.2c78.6,1.8,154.8,18.1,226.8,48.5C928.1,94.2,963.5,113.5,996.6,135.9z M640.2,639.2
	H361.7c1.3-35.1,8.8-69.2,22.4-101.4c10.9-25.7,25.2-49.4,42.8-70.8C518.8,540.9,607.4,612.6,640.2,639.2z M470,424.5
	c20.6-16.5,43.3-30,67.7-40.4c33.4-14.1,68.7-21.7,105.1-22.6v275.1L470,424.5z M642.8,660.8v277.6c-36.4-0.9-71.7-8.5-105.1-22.6
	c-34.4-14.5-65.2-35.3-91.7-61.8c-26.5-26.5-47.3-57.4-61.8-91.7C370.5,730,363,696,361.7,660.8H642.8z M664.5,660.8h273.8
	c-1.3,35.1-8.8,69.2-22.4,101.4c-14.5,34.4-35.3,65.2-61.8,91.7c-26.5,26.5-57.4,47.3-91.7,61.8c-31.1,13.2-64,20.6-97.8,22.3V660.8
	z M664.5,639.2V361.9c33.8,1.7,66.7,9.1,97.8,22.3c34.4,14.5,65.2,35.3,91.7,61.8c26.5,26.5,47.3,57.4,61.8,91.7
	C929.5,570,937,604,938.3,639.2H664.5z M642.8,331.6c-72.5,1.6-139,27.4-191.7,69.7L334.8,258.6c36.3-29.3,76.4-53.3,119.6-71.6
	c59.7-25.3,123.1-38.5,188.4-39.4V331.6z M403.6,448.1c-42.9,52.3-69.5,118.6-71.9,191H147.6c1.3-64,14.6-126.1,39.4-184.7
	c18.6-44,43.2-84.7,73.2-121.5C301.5,366,352.4,406.8,403.6,448.1z M331.7,660.8c5.6,168.5,142.1,303.8,311.1,307.6v184
	c-65.3-0.9-128.6-14.2-188.4-39.4c-59.8-25.3-113.6-61.5-159.7-107.7c-46.2-46.2-82.4-99.9-107.7-159.7
	c-24.8-58.6-38-120.7-39.4-184.7H331.7z M664.5,968.2c165.6-7.4,298.3-141.2,303.8-307.3h184.1c-1.3,64-14.6,126.1-39.4,184.7
	c-25.3,59.8-61.5,113.6-107.7,159.7c-46.2,46.2-99.9,82.4-159.7,107.7c-57.5,24.3-118.4,37.5-181.1,39.3V968.2z M968.3,639.2
	c-5.6-166.1-138.2-299.9-303.8-307.3V147.7c62.7,1.8,123.6,14.9,181.1,39.3c59.8,25.3,113.6,61.5,159.7,107.7
	c46.2,46.2,82.4,99.9,107.7,159.7c24.8,58.6,38,120.7,39.4,184.7H968.3z M408.7,78.7C482.9,47.3,561.6,31,642.8,30v102.5
	c-120.1,1.6-230.4,44.2-317.4,114.4l-64.7-79.5c13.8-11.2,28.1-21.7,42.8-31.6C336.5,113.5,371.9,94.2,408.7,78.7z M135.9,303.4
	c10-14.9,20.7-29.3,32.1-43.3c5.1,3.4,36.2,28,80.5,63.4C178.1,410,135.1,519.6,132.6,639.2H30.1c1.4-79.9,17.7-157.4,48.6-230.5
	C94.2,371.9,113.5,336.5,135.9,303.4z M303.4,1164.1c-32.8-22.2-63.7-47.7-91.8-75.7c-28.1-28.1-53.5-58.9-75.7-91.8
	c-22.4-33.1-41.6-68.6-57.2-105.3c-30.9-73.1-47.3-150.6-48.6-230.5h102.5c5.7,278.4,231.3,502.8,510.2,506.6V1270
	c-81.2-0.9-159.9-17.3-234.1-48.7C371.9,1205.8,336.5,1186.5,303.4,1164.1z M1164.1,996.6c-22.2,32.8-47.7,63.7-75.7,91.8
	c-28.1,28.1-58.9,53.5-91.8,75.7c-33.1,22.4-68.6,41.6-105.3,57.2c-72,30.5-148.3,46.8-226.8,48.5v-102.5
	c275.5-7.6,497.2-230.5,502.9-506.5h102.5c-1.4,79.9-17.7,157.4-48.6,230.5C1205.8,928.1,1186.5,963.5,1164.1,996.6z"/>
</svg>
