<?xml version="1.0" encoding="utf-8"?>
<svg version="1.1" id="Layer_1" xmlns="http://www.w3.org/2000/svg" xmlns:xlink="http://www.w3.org/1999/xlink" x="0px" y="0px"
	 viewBox="0 0 30 30" style="enable-background:new 0 0 30 30;" xml:space="preserve">
<style type="text/css">
	.st0{fill:#BDC0C5;}
</style>
<g id="XMLID_34_" transform="translate(882.32636,-1385.2191)">
	<path id="XMLID_39_" class="st0" d="M-868.9,1411.8c0-2.8,0-3.4,0-3.4c0,0,0.2,0,0.4,0.1c0.5,0.1,1.8,0.1,2.3,0
		c0.2,0,0.4-0.1,0.4-0.1c0,0,0,0.6,0,3.4v3.4h-1.6h-1.6V1411.8z M-860.2,1409.5c-1.3-1.3-2.4-2.4-2.4-2.4s0.2-0.2,0.4-0.3
		c0.5-0.4,1.1-1,1.5-1.5l0.3-0.4l2.4,2.4l2.4,2.4l-1.1,1.1c-0.6,0.6-1.1,1.1-1.1,1.1S-858.9,1410.9-860.2,1409.5L-860.2,1409.5z
		 M-878,1410.8l-1.1-1.1l2.4-2.4c2-2,2.4-2.4,2.4-2.3c0,0,0.2,0.2,0.3,0.4c0.4,0.5,0.9,1.1,1.4,1.4c0.2,0.2,0.4,0.3,0.4,0.3
		c0,0-4.7,4.8-4.8,4.8C-876.9,1411.9-877.4,1411.4-878,1410.8L-878,1410.8z M-882.3,1400.3v-1.5h3.4c1.9,0,3.4,0,3.4,0
		c0,0,0,0.2-0.1,0.4c-0.1,0.5-0.1,1.8,0,2.3c0,0.2,0.1,0.4,0.1,0.4c0,0-0.6,0-3.4,0h-3.4V1400.3z M-859.1,1401.8c0,0,0-0.2,0.1-0.4
		c0-0.3,0.1-0.5,0.1-1.1c0-0.6,0-0.9-0.1-1.1c0-0.2-0.1-0.4-0.1-0.4c0,0,1.5,0,3.4,0h3.4v1.5v1.5h-3.4
		C-858.5,1401.8-859.1,1401.8-859.1,1401.8z M-876.7,1393.1l-2.4-2.4l1.1-1.1l1.1-1.1l2.4,2.4l2.4,2.4l-0.4,0.3
		c-0.5,0.4-1.1,1-1.5,1.5c-0.2,0.2-0.3,0.4-0.3,0.4C-874.3,1395.5-875.3,1394.4-876.7,1393.1L-876.7,1393.1z M-860.8,1395.1
		c-0.4-0.5-1-1.1-1.4-1.4c-0.2-0.2-0.4-0.3-0.4-0.3c0,0,0.3-0.4,2.4-2.5l2.4-2.4l1.1,1.1c0.6,0.6,1.1,1.1,1.1,1.1
		c0,0-4.8,4.8-4.8,4.8C-860.4,1395.5-860.6,1395.3-860.8,1395.1L-860.8,1395.1z M-868.9,1388.6v-3.4h1.6h1.6v3.4c0,2.8,0,3.4,0,3.4
		c0,0-0.2,0-0.4-0.1c-0.3,0-0.5-0.1-1.1-0.1c-0.6,0-0.9,0-1.1,0.1c-0.2,0-0.4,0.1-0.4,0.1C-868.9,1392-868.9,1391.4-868.9,1388.6
		L-868.9,1388.6z"/>
</g>
</svg>
