<?xml version="1.0" encoding="utf-8"?>
<svg version="1.1" id="arrow" xmlns="http://www.w3.org/2000/svg" xmlns:xlink="http://www.w3.org/1999/xlink" x="0px" y="0px"
	 viewBox="-281 360.2 47.2 73.9" style="enable-background:new -281 360.2 47.2 73.9;" xml:space="preserve" width="20">
<style type="text/css">
	.st0{fill:#ed1c24;}
</style>
<path id="XMLID_12_" class="st0" d="M-239.4,369.5c-3.2-3.2-12.5-8.4-20.4-9.1c-8.1-0.8-15.2,1.1-21.2,6.9c5.6-3.8,11.6-5,18.3-4
	c12.6,1.9,26.5,17.3,21.4,33.6c-2.9,9.3-7.3,17.7-16,24.9c1.7-4.3,2.9-7.4,4.1-10.4c-0.5-0.4-1-0.8-1.6-1.3
	c-1.9,1.9-4.5,3.4-5.7,5.7c-2.6,5.2-4.5,10.7-6.9,16.5c0.2,0.2,1.2,1.2,1.8,1.8c8.6-2.6,17-5.2,25.3-7.8c-0.1-0.7-0.2-1.3-0.4-2
	c-4.5,0.4-9,0.8-13.9,1.3c14.2-13.8,25.6-31.8,18.8-50.2C-237.4,371.8-237.6,371.3-239.4,369.5z"/>
</svg>
