<svg width="242" height="49" viewBox="0 0 242 49" fill="none" xmlns="http://www.w3.org/2000/svg">
<g clip-path="url(#clip0_70_61)">
<path d="M22.4185 0.06615C9.8853 0.989392 0 11.5754 0 24.5C0 32.0999 3.41825 38.8913 8.78258 43.3846L28.2688 15.5734L22.4185 0.06615ZM36.7118 3.52473C33.0604 1.28747 28.779 0 24.2 0C24.1637 0 24.1278 0.001225 24.0915 0.001225L31.6359 10.7686L36.7118 3.52473ZM20.6926 48.7428C21.8377 48.911 23.0086 48.9996 24.2 48.9996C29.7571 48.9996 34.8758 47.1025 38.9612 43.9138L30.7376 22.117L20.6926 48.7428ZM37.5491 4.06333L33.8352 13.907L47.0073 32.7067C47.9079 30.1407 48.4 27.3787 48.4 24.5C48.4 15.9642 44.0876 8.44923 37.5491 4.06333Z" fill="url(#paint0_linear_70_61)"/>
<path d="M79.8965 37.0068L87.9757 15.5925H94.1382L102.215 37.0068H96.9575L95.4155 32.9242H86.6983L85.158 37.0068H79.8965ZM87.8659 29.843H94.2535L91.0559 21.3745L87.8659 29.843Z" fill="#02305B"/>
<path d="M149.45 37.0068L157.529 15.5925H163.691L171.768 37.0068H166.511L164.969 32.9242H156.252L154.711 37.0068H149.45ZM157.419 29.843H163.807L160.609 21.3745L157.419 29.843Z" fill="#02305B"/>
<path d="M106.771 37.0068V28.9111L97.439 15.5925H103.552L109.827 24.5489L116.103 15.5925H122.215L112.887 28.912V37.0068H106.771Z" fill="#02305B"/>
<path d="M73.3139 29.1517C73.8951 28.9079 74.3851 28.6213 74.8659 28.2562C75.3673 27.8908 75.798 27.4547 76.1586 26.9471C76.5196 26.4196 76.7999 25.821 77.0008 25.1513C77.2012 24.4616 77.3012 23.6698 77.3012 22.7772C77.3012 21.3771 77.0508 20.2203 76.5498 19.3068C76.0485 18.3734 75.387 17.6326 74.5654 17.0847C73.7636 16.5367 72.8416 16.1512 71.7994 15.9279C70.7769 15.7045 69.7347 15.593 68.6723 15.593H55.7891L57.5811 20.3432H69.0115C69.7835 20.3432 70.4014 20.5383 70.8645 20.9291C71.3468 21.3199 71.588 21.9161 71.588 22.7172C71.588 23.5179 71.3468 24.1141 70.8645 24.5049C70.4014 24.8957 69.7835 25.0908 69.0115 25.0933H59.8022V29.3641L65.1581 37.0072V29.843H67.6858L72.7049 37.0068H78.8178L73.3139 29.1517Z" fill="#02305B"/>
<path d="M187.263 29.1517C187.844 28.9079 188.334 28.6213 188.815 28.2562C189.316 27.8908 189.747 27.4547 190.108 26.9471C190.469 26.4196 190.75 25.821 190.95 25.1513C191.151 24.4616 191.251 23.6698 191.251 22.7772C191.251 21.3771 191 20.2203 190.499 19.3068C189.998 18.3734 189.336 17.6326 188.515 17.0847C187.713 16.5367 186.791 16.1512 185.748 15.9279C184.726 15.7045 183.684 15.593 182.621 15.593H169.739L171.531 20.3432H182.961C183.733 20.3432 184.351 20.5383 184.815 20.9291C185.297 21.3199 185.538 21.9161 185.538 22.7172C185.538 23.5179 185.297 24.1141 184.815 24.5049C184.352 24.8957 183.733 25.0908 182.961 25.0933H173.752V29.3641L179.107 37.0072V29.843H181.635L186.654 37.0068H192.767L187.263 29.1517Z" fill="#02305B"/>
<path d="M121.18 37.0068H138.173C139.457 37.0068 140.817 36.4572 140.817 36.4572C141.304 36.253 141.75 35.9978 142.153 35.6916C142.573 35.3853 142.935 35.0194 143.237 34.594C143.54 34.1517 143.775 33.6495 143.943 33.088C144.111 32.5094 144.195 31.8459 144.195 31.097C144.195 31.0774 144.194 31.0594 144.194 31.0398C144.194 31.0202 144.195 31.0018 144.195 30.9827C144.195 30.2338 144.111 29.5698 143.943 28.9916C143.775 28.4298 143.54 27.9279 143.237 27.4853C142.935 27.0602 142.573 26.6939 142.153 26.3877C141.75 26.081 140.131 25.0929 136.959 25.0929H130.376C129.603 25.0929 128.985 24.8911 128.521 24.4995C128.04 24.1096 127.798 23.5155 127.796 22.7176C127.798 21.9197 128.04 21.3256 128.521 20.9356C128.985 20.5444 129.603 20.3423 130.376 20.3423H137.125L138.917 15.5922H129.267C127.733 15.5922 126.11 16.2479 126.11 16.2479C125.528 16.4921 124.996 16.7967 124.514 17.1622C124.013 17.5281 123.582 17.965 123.22 18.473C122.859 19.0013 122.578 19.6008 122.377 20.2713C122.176 20.9622 122.076 21.7547 122.076 22.6486C122.076 22.6723 122.077 22.6939 122.078 22.7168C122.077 22.74 122.076 22.7617 122.076 22.785C122.076 23.6792 122.176 24.4714 122.377 25.1627C122.578 25.8336 122.858 26.4326 123.22 26.961C123.582 27.4689 124.013 27.9059 124.514 28.2717C124.996 28.6376 126.928 29.8422 130.716 29.8422H136.564C137.065 29.8422 137.465 29.9798 137.765 30.233C138.077 30.4853 138.233 30.87 138.234 31.3861C138.233 31.9026 138.077 32.2873 137.765 32.5392C137.465 32.7924 137.065 32.9194 136.564 32.9194L122.72 32.9235L121.18 37.0068Z" fill="#02305B"/>
<path d="M212.601 15.5925L206.287 24.6036L199.973 15.5925H194.69V37.0068H200.245V24.7943L206.287 33.4195L212.33 24.8025V37.0068H217.884V15.5925H212.601Z" fill="#02305B"/>
<path d="M219.682 37.0068L227.761 15.5925H233.923L242 37.0068H236.743L235.201 32.9242H226.484L224.944 37.0068H219.682ZM227.651 29.843H234.039L230.841 21.3745L227.651 29.843Z" fill="#02305B"/>
</g>
<defs>
<linearGradient id="paint0_linear_70_61" x1="3.23828" y1="36.7512" x2="45.417" y2="12.6975" gradientUnits="userSpaceOnUse">
<stop offset="0.3" stop-color="#990806"/>
<stop offset="1" stop-color="#E31302"/>
</linearGradient>
<clipPath id="clip0_70_61">
<rect width="242" height="49" fill="white"/>
</clipPath>
</defs>
</svg>
